<svg width="671" height="122" viewBox="0 0 671 122" fill="none" xmlns="http://www.w3.org/2000/svg">
<path d="M0.0400004 90.112V89.112H-0.96V90.112H0.0400004ZM9.64 90.112V91.112H10.64V90.112H9.64ZM9.64 12.544H10.64V11.544H9.64V12.544ZM0.0400004 12.544H-0.96V13.544H0.0400004V12.544ZM0.0400004 6.656V5.656H-0.96V6.656H0.0400004ZM66.088 6.656H67.088V5.656H66.088V6.656ZM66.088 28.16V29.16H67.088V28.16H66.088ZM56.872 28.16H55.872V29.16H56.872V28.16ZM56.872 12.928H57.872V11.928H56.872V12.928ZM20.648 12.928V11.928H19.648V12.928H20.648ZM20.648 46.848H19.648V47.848H20.648V46.848ZM45.992 46.848V47.848H46.992V46.848H45.992ZM45.992 36.608V35.608H44.992V36.608H45.992ZM53.672 36.608H54.672V35.608H53.672V36.608ZM53.672 63.36V64.36H54.672V63.36H53.672ZM45.992 63.36H44.992V64.36H45.992V63.36ZM45.992 53.12H46.992V52.12H45.992V53.12ZM20.648 53.12V52.12H19.648V53.12H20.648ZM20.648 89.728H19.648V90.728H20.648V89.728ZM58.152 89.728V90.728H59.152V89.728H58.152ZM58.152 73.344V72.344H57.152V73.344H58.152ZM67.368 73.344H68.368V72.344H67.368V73.344ZM67.368 96V97H68.368V96H67.368ZM0.0400004 96H-0.96V97H0.0400004V96ZM0.0400004 91.112H9.64V89.112H0.0400004V91.112ZM10.64 90.112V12.544H8.64V90.112H10.64ZM9.64 11.544H0.0400004V13.544H9.64V11.544ZM1.04 12.544V6.656H-0.96V12.544H1.04ZM0.0400004 7.656H66.088V5.656H0.0400004V7.656ZM65.088 6.656V28.16H67.088V6.656H65.088ZM66.088 27.16H56.872V29.16H66.088V27.16ZM57.872 28.16V12.928H55.872V28.16H57.872ZM56.872 11.928H20.648V13.928H56.872V11.928ZM19.648 12.928V46.848H21.648V12.928H19.648ZM20.648 47.848H45.992V45.848H20.648V47.848ZM46.992 46.848V36.608H44.992V46.848H46.992ZM45.992 37.608H53.672V35.608H45.992V37.608ZM52.672 36.608V63.36H54.672V36.608H52.672ZM53.672 62.36H45.992V64.36H53.672V62.36ZM46.992 63.36V53.12H44.992V63.36H46.992ZM45.992 52.12H20.648V54.12H45.992V52.12ZM19.648 53.12V89.728H21.648V53.12H19.648ZM20.648 90.728H58.152V88.728H20.648V90.728ZM59.152 89.728V73.344H57.152V89.728H59.152ZM58.152 74.344H67.368V72.344H58.152V74.344ZM66.368 73.344V96H68.368V73.344H66.368ZM67.368 95H0.0400004V97H67.368V95ZM1.04 96V90.112H-0.96V96H1.04ZM78.968 90.112V89.112H77.968V90.112H78.968ZM86.264 90.112V91.112H86.7709L87.0705 90.7032L86.264 90.112ZM105.592 63.744L106.399 64.3352L106.823 63.7567L106.411 63.1695L105.592 63.744ZM86.008 35.84L86.8265 35.2655L86.5279 34.84H86.008V35.84ZM79.352 35.84H78.352V36.84H79.352V35.84ZM79.352 29.952V28.952H78.352V29.952H79.352ZM106.232 29.952H107.232V28.952H106.232V29.952ZM106.232 35.84V36.84H107.232V35.84H106.232ZM98.68 35.84V34.84H96.7861L97.8542 36.404L98.68 35.84ZM113.016 56.832L112.19 57.396L112.488 57.832H113.016V56.832ZM113.528 56.832V57.832H114.072L114.368 57.3748L113.528 56.832ZM127.096 35.84L127.936 36.3828L128.933 34.84H127.096V35.84ZM119.16 35.84H118.16V36.84H119.16V35.84ZM119.16 29.952V28.952H118.16V29.952H119.16ZM142.328 29.952H143.328V28.952H142.328V29.952ZM142.328 35.84V36.84H143.328V35.84H142.328ZM135.032 35.84V34.84H134.513L134.214 35.2641L135.032 35.84ZM116.728 61.824L115.91 61.2481L115.508 61.819L115.906 62.3932L116.728 61.824ZM136.312 90.112L135.49 90.6812L135.788 91.112H136.312V90.112ZM142.968 90.112H143.968V89.112H142.968V90.112ZM142.968 96V97H143.968V96H142.968ZM115.96 96H114.96V97H115.96V96ZM115.96 90.112V89.112H114.96V90.112H115.96ZM123.512 90.112V91.112H125.377L124.345 89.5585L123.512 90.112ZM109.304 68.736L110.137 68.1824L109.84 67.736H109.304V68.736ZM108.792 68.736V67.736H108.264L107.966 68.1722L108.792 68.736ZM94.2 90.112L93.3741 89.5482L92.3066 91.112H94.2V90.112ZM102.136 90.112H103.136V89.112H102.136V90.112ZM102.136 96V97H103.136V96H102.136ZM78.968 96H77.968V97H78.968V96ZM78.968 91.112H86.264V89.112H78.968V91.112ZM87.0705 90.7032L106.399 64.3352L104.785 63.1528L85.4575 89.5208L87.0705 90.7032ZM106.411 63.1695L86.8265 35.2655L85.1895 36.4145L104.773 64.3185L106.411 63.1695ZM86.008 34.84H79.352V36.84H86.008V34.84ZM80.352 35.84V29.952H78.352V35.84H80.352ZM79.352 30.952H106.232V28.952H79.352V30.952ZM105.232 29.952V35.84H107.232V29.952H105.232ZM106.232 34.84H98.68V36.84H106.232V34.84ZM97.8542 36.404L112.19 57.396L113.842 56.268L99.5058 35.276L97.8542 36.404ZM113.016 57.832H113.528V55.832H113.016V57.832ZM114.368 57.3748L127.936 36.3828L126.256 35.2972L112.688 56.2892L114.368 57.3748ZM127.096 34.84H119.16V36.84H127.096V34.84ZM120.16 35.84V29.952H118.16V35.84H120.16ZM119.16 30.952H142.328V28.952H119.16V30.952ZM141.328 29.952V35.84H143.328V29.952H141.328ZM142.328 34.84H135.032V36.84H142.328V34.84ZM134.214 35.2641L115.91 61.2481L117.546 62.3999L135.85 36.4159L134.214 35.2641ZM115.906 62.3932L135.49 90.6812L137.134 89.5428L117.55 61.2548L115.906 62.3932ZM136.312 91.112H142.968V89.112H136.312V91.112ZM141.968 90.112V96H143.968V90.112H141.968ZM142.968 95H115.96V97H142.968V95ZM116.96 96V90.112H114.96V96H116.96ZM115.96 91.112H123.512V89.112H115.96V91.112ZM124.345 89.5585L110.137 68.1824L108.471 69.2895L122.679 90.6655L124.345 89.5585ZM109.304 67.736H108.792V69.736H109.304V67.736ZM107.966 68.1722L93.3741 89.5482L95.0259 90.6758L109.618 69.2998L107.966 68.1722ZM94.2 91.112H102.136V89.112H94.2V91.112ZM101.136 90.112V96H103.136V90.112H101.136ZM102.136 95H78.968V97H102.136V95ZM79.968 96V90.112H77.968V96H79.968ZM151.87 115.712V114.712H150.87V115.712H151.87ZM161.342 115.712V116.712H162.342V115.712H161.342ZM161.342 38.272H162.342V37.4324L161.515 37.2871L161.342 38.272ZM151.87 36.608H150.87V37.4476L151.697 37.5929L151.87 36.608ZM151.87 32.256L151.681 31.274L150.87 31.43V32.256H151.87ZM171.838 28.416H172.838V27.2054L171.649 27.434L171.838 28.416ZM171.838 39.936H170.838V40.936H171.838V39.936ZM172.35 39.936V40.936H172.991L173.259 40.3535L172.35 39.936ZM179.262 31.872L179.837 32.6902L179.844 32.6851L179.851 32.6798L179.262 31.872ZM211.39 37.376L210.615 38.0074L210.619 38.0135L210.625 38.0194L211.39 37.376ZM211.39 88.704L210.62 88.066L210.619 88.0671L211.39 88.704ZM179.262 94.208L178.687 95.0263L178.697 95.0333L179.262 94.208ZM172.35 86.144L173.259 85.7265L172.991 85.144H172.35V86.144ZM171.838 86.144V85.144H170.838V86.144H171.838ZM171.838 115.712H170.838V116.712H171.838V115.712ZM183.87 115.712H184.87V114.712H183.87V115.712ZM183.87 121.6V122.6H184.87V121.6H183.87ZM151.87 121.6H150.87V122.6H151.87V121.6ZM202.43 84.352L201.66 83.7134L201.659 83.7151L202.43 84.352ZM202.43 41.728L201.652 42.3567L201.66 42.3658L201.667 42.3747L202.43 41.728ZM182.59 36.608L182.31 35.648L182.31 35.648L182.59 36.608ZM177.086 39.168L176.521 38.3427L176.511 38.3499L176.501 38.3573L177.086 39.168ZM173.246 43.392L172.389 42.8775L172.384 42.8842L172.381 42.891L173.246 43.392ZM173.246 82.688L172.37 83.1699L172.384 83.1964L172.401 83.222L173.246 82.688ZM177.086 86.784L176.501 87.5947L176.511 87.6021L176.521 87.6093L177.086 86.784ZM182.59 89.344L182.31 90.304L182.31 90.304L182.59 89.344ZM151.87 116.712H161.342V114.712H151.87V116.712ZM162.342 115.712V38.272H160.342V115.712H162.342ZM161.515 37.2871L152.043 35.6231L151.697 37.5929L161.169 39.2569L161.515 37.2871ZM152.87 36.608V32.256H150.87V36.608H152.87ZM152.059 33.238L172.027 29.398L171.649 27.434L151.681 31.274L152.059 33.238ZM170.838 28.416V39.936H172.838V28.416H170.838ZM171.838 40.936H172.35V38.936H171.838V40.936ZM173.259 40.3535C174.628 37.3742 176.808 34.8187 179.837 32.6902L178.687 31.0538C175.401 33.3626 172.974 36.1831 171.441 39.5185L173.259 40.3535ZM179.851 32.6798C182.789 30.5363 186.743 29.416 191.806 29.416V27.416C186.458 27.416 182.05 28.5997 178.673 31.0642L179.851 32.6798ZM191.806 29.416C199.719 29.416 205.954 32.2838 210.615 38.0074L212.165 36.7446C207.098 30.5216 200.277 27.416 191.806 27.416V29.416ZM210.625 38.0194C215.367 43.661 217.814 51.9286 217.814 62.976H219.814C219.814 51.6661 217.312 42.867 212.155 36.7325L210.625 38.0194ZM217.814 62.976C217.814 74.0221 215.367 82.3366 210.62 88.066L212.16 89.342C217.311 83.1248 219.814 74.2872 219.814 62.976H217.814ZM210.619 88.0671C205.96 93.7067 199.724 96.536 191.806 96.536V98.536C200.272 98.536 207.092 95.4773 212.161 89.3409L210.619 88.0671ZM191.806 96.536C186.827 96.536 182.859 95.4576 179.827 93.3827L178.697 95.0333C182.15 97.3957 186.545 98.536 191.806 98.536V96.536ZM179.837 93.3898C176.808 91.2613 174.628 88.7058 173.259 85.7265L171.441 86.5615C172.974 89.8969 175.401 92.7174 178.687 95.0262L179.837 93.3898ZM172.35 85.144H171.838V87.144H172.35V85.144ZM170.838 86.144V115.712H172.838V86.144H170.838ZM171.838 116.712H183.87V114.712H171.838V116.712ZM182.87 115.712V121.6H184.87V115.712H182.87ZM183.87 120.6H151.87V122.6H183.87V120.6ZM152.87 121.6V115.712H150.87V121.6H152.87ZM188.734 91.24C194.868 91.24 199.737 89.1816 203.201 84.9889L201.659 83.7151C198.637 87.3731 194.376 89.24 188.734 89.24V91.24ZM203.2 84.9906C206.714 80.7555 208.422 75.1752 208.422 68.352H206.422C206.422 74.8408 204.802 79.9272 201.66 83.7134L203.2 84.9906ZM208.422 68.352V57.6H206.422V68.352H208.422ZM208.422 57.6C208.422 50.778 206.714 45.2348 203.193 41.0813L201.667 42.3747C204.802 46.0718 206.422 51.11 206.422 57.6H208.422ZM203.208 41.0993C199.747 36.8187 194.876 34.712 188.734 34.712V36.712C194.368 36.712 198.628 38.6159 201.652 42.3567L203.208 41.0993ZM188.734 34.712C186.587 34.712 184.445 35.0252 182.31 35.648L182.87 37.568C184.831 36.9961 186.785 36.712 188.734 36.712V34.712ZM182.31 35.648C180.169 36.2724 178.237 37.1688 176.521 38.3427L177.651 39.9933C179.178 38.9485 180.915 38.1383 182.87 37.568L182.31 35.648ZM176.501 38.3573C174.849 39.5499 173.479 41.0607 172.389 42.8775L174.103 43.9065C175.061 42.31 176.251 41.0047 177.671 39.9787L176.501 38.3573ZM172.381 42.891C171.346 44.6785 170.838 46.6889 170.838 48.896H172.838C172.838 47.0071 173.269 45.3481 174.111 43.893L172.381 42.891ZM170.838 48.896V77.056H172.838V48.896H170.838ZM170.838 77.056C170.838 79.2635 171.346 81.3079 172.37 83.1699L174.122 82.2061C173.269 80.6547 172.838 78.9445 172.838 77.056H170.838ZM172.401 83.222C173.492 84.95 174.86 86.4096 176.501 87.5947L177.671 85.9733C176.24 84.9397 175.048 83.6687 174.091 82.154L172.401 83.222ZM176.521 87.6093C178.237 88.7832 180.169 89.6796 182.31 90.304L182.87 88.384C180.915 87.8137 179.178 87.0035 177.651 85.9587L176.521 87.6093ZM182.31 90.304C184.445 90.9268 186.587 91.24 188.734 91.24V89.24C186.785 89.24 184.831 88.9559 182.87 88.384L182.31 90.304ZM249.54 95.104L249.118 96.0107L249.131 96.0166L249.144 96.0221L249.54 95.104ZM240.196 88.064L240.955 87.4132L240.196 88.064ZM234.308 77.184L233.356 77.4888L233.356 77.4888L234.308 77.184ZM234.436 49.024L233.495 48.6853L233.491 48.6962L234.436 49.024ZM240.58 38.016L239.822 37.3635L239.817 37.3696L239.812 37.3758L240.58 38.016ZM249.924 30.976L250.336 31.8871L250.345 31.8831L250.354 31.8789L249.924 30.976ZM273.348 30.72L273.758 29.8081L273.758 29.8081L273.348 30.72ZM281.924 37.248L281.15 37.8812L281.161 37.894L281.171 37.9065L281.924 37.248ZM287.428 47.104L286.479 47.4202L286.479 47.4202L287.428 47.104ZM289.348 62.592V63.592H290.348V62.592H289.348ZM243.908 62.592V61.592H242.908V62.592H243.908ZM249.284 83.072L248.525 83.7228L248.532 83.7316L249.284 83.072ZM276.42 86.144L276.99 86.9654L276.995 86.9622L276.42 86.144ZM283.844 77.568L284.381 76.7243L283.455 76.1348L282.954 77.1121L283.844 77.568ZM288.068 80.256L289.001 80.615L289.295 79.8515L288.605 79.4123L288.068 80.256ZM284.484 86.784L283.672 86.1997L283.668 86.206L284.484 86.784ZM279.108 92.288L279.692 93.0995L279.703 93.092L279.713 93.0842L279.108 92.288ZM271.684 96L271.368 95.0513L271.355 95.0556L271.342 95.0602L271.684 96ZM243.908 56.704H242.908V57.704H243.908V56.704ZM278.34 56.704V57.704H279.34V56.704H278.34ZM277.316 47.104L276.342 47.3312L276.346 47.3465L276.35 47.3617L277.316 47.104ZM274.372 40.448L273.563 41.0362L273.563 41.0362L274.372 40.448ZM269.124 36.096L268.648 36.9753L268.669 36.9869L268.691 36.9975L269.124 36.096ZM254.02 35.968L254.439 36.876L254.439 36.876L254.02 35.968ZM248.388 40.32L247.614 39.6868L247.605 39.6975L247.597 39.7085L248.388 40.32ZM245.06 46.976L246.015 47.2724L246.018 47.2633L245.06 46.976ZM262.212 96.536C257.635 96.536 253.549 95.7458 249.936 94.1859L249.144 96.0221C253.041 97.7049 257.402 98.536 262.212 98.536V96.536ZM249.962 94.1973C246.418 92.5491 243.42 90.2883 240.955 87.4132L239.437 88.7148C242.092 91.8131 245.323 94.2456 249.118 96.0107L249.962 94.1973ZM240.955 87.4132C238.493 84.541 236.591 81.0364 235.26 76.8792L233.356 77.4888C234.756 81.865 236.779 85.6137 239.437 88.7148L240.955 87.4132ZM235.26 76.8792C233.931 72.7255 233.26 68.0943 233.26 62.976H231.26C231.26 68.2684 231.954 73.1091 233.356 77.4888L235.26 76.8792ZM233.26 62.976C233.26 57.9504 233.972 53.4126 235.381 49.3518L233.491 48.6962C231.999 52.9981 231.26 57.7616 231.26 62.976H233.26ZM235.377 49.3627C236.879 45.1913 238.872 41.6274 241.348 38.6562L239.812 37.3758C237.168 40.5486 235.065 44.3234 233.495 48.6853L235.377 49.3627ZM241.338 38.6685C243.891 35.7034 246.889 33.4466 250.336 31.8871L249.512 30.0649C245.791 31.7481 242.56 34.1846 239.822 37.3635L241.338 38.6685ZM250.354 31.8789C253.794 30.2408 257.571 29.416 261.7 29.416V27.416C257.296 27.416 253.222 28.2978 249.494 30.0731L250.354 31.8789ZM261.7 29.416C265.933 29.416 269.673 30.1627 272.938 31.6319L273.758 29.8081C270.197 28.2053 266.171 27.416 261.7 27.416V29.416ZM272.938 31.6319C276.214 33.1063 278.947 35.1885 281.15 37.8812L282.698 36.6148C280.293 33.6755 277.309 31.4057 273.758 29.8081L272.938 31.6319ZM281.171 37.9065C283.464 40.5263 285.236 43.6916 286.479 47.4202L288.377 46.7878C287.06 42.8364 285.163 39.431 282.677 36.5895L281.171 37.9065ZM286.479 47.4202C287.722 51.1471 288.348 55.2203 288.348 59.648H290.348C290.348 55.0303 289.694 50.7409 288.377 46.7878L286.479 47.4202ZM288.348 59.648V62.592H290.348V59.648H288.348ZM289.348 61.592H243.908V63.592H289.348V61.592ZM242.908 62.592V65.92H244.908V62.592H242.908ZM242.908 65.92C242.908 73.3353 244.742 79.3094 248.525 83.7228L250.043 82.4212C246.658 78.472 244.908 73.0114 244.908 65.92H242.908ZM248.532 83.7316C252.41 88.1501 257.558 90.344 263.876 90.344V88.344C258.076 88.344 253.497 86.3566 250.036 82.4124L248.532 83.7316ZM263.876 90.344C269.289 90.344 273.695 89.2541 276.99 86.9654L275.85 85.3226C273.001 87.3005 269.044 88.344 263.876 88.344V90.344ZM276.995 86.9622C280.288 84.6483 282.869 81.6643 284.734 78.0239L282.954 77.1121C281.235 80.469 278.867 83.2023 275.845 85.3258L276.995 86.9622ZM283.307 78.4117L287.531 81.0997L288.605 79.4123L284.381 76.7243L283.307 78.4117ZM287.135 79.897C286.315 82.0277 285.164 84.1287 283.672 86.1997L285.296 87.3683C286.876 85.1727 288.114 82.9216 289.001 80.615L287.135 79.897ZM283.668 86.206C282.28 88.1655 280.561 89.9279 278.503 91.4918L279.713 93.0842C281.922 91.4054 283.787 89.4985 285.3 87.362L283.668 86.206ZM278.524 91.4765C276.482 92.9464 274.1 94.1405 271.368 95.0513L272 96.9487C274.9 95.9822 277.467 94.7016 279.692 93.0995L278.524 91.4765ZM271.342 95.0602C268.652 96.0383 265.613 96.536 262.212 96.536V98.536C265.808 98.536 269.084 98.0097 272.026 96.9398L271.342 95.0602ZM243.908 57.704H278.34V55.704H243.908V57.704ZM279.34 56.704V55.424H277.34V56.704H279.34ZM279.34 55.424C279.34 52.3612 278.99 49.5003 278.282 46.8463L276.35 47.3617C277.007 49.8277 277.34 52.5135 277.34 55.424H279.34ZM278.29 46.8768C277.666 44.2038 276.634 41.8586 275.181 39.8598L273.563 41.0362C274.84 42.792 275.771 44.8842 276.342 47.3312L278.29 46.8768ZM275.181 39.8598C273.716 37.8458 271.836 36.2887 269.557 35.1945L268.691 36.9975C270.678 37.9513 272.297 39.2955 273.563 41.0362L275.181 39.8598ZM269.6 35.2167C267.374 34.011 264.727 33.432 261.7 33.432V35.432C264.475 35.432 266.778 35.9623 268.648 36.9753L269.6 35.2167ZM261.7 33.432C258.681 33.432 255.973 33.9651 253.601 35.06L254.439 36.876C256.504 35.9229 258.917 35.432 261.7 35.432V33.432ZM253.601 35.06C251.246 36.1471 249.247 37.6912 247.614 39.6868L249.162 40.9532C250.601 39.1941 252.357 37.8369 254.439 36.876L253.601 35.06ZM247.597 39.7085C246.062 41.6943 244.901 44.0261 244.102 46.6886L246.018 47.2633C246.755 44.8059 247.812 42.7004 249.179 40.9314L247.597 39.7085ZM244.105 46.6796C243.303 49.2636 242.908 52.0958 242.908 55.168H244.908C244.908 52.2668 245.281 49.6377 246.015 47.2724L244.105 46.6796ZM242.908 55.168V56.704H244.908V55.168H242.908ZM301.525 90.112V89.112H300.525V90.112H301.525ZM310.997 90.112V91.112H311.997V90.112H310.997ZM310.997 38.272H311.997V37.4324L311.17 37.2871L310.997 38.272ZM301.525 36.608H300.525V37.4476L301.352 37.5929L301.525 36.608ZM301.525 32.256L301.334 31.2744L300.525 31.432V32.256H301.525ZM321.237 28.416H322.237V27.2024L321.046 27.4345L321.237 28.416ZM321.237 39.936H320.237V40.936H321.237V39.936ZM321.877 39.936V40.936H322.531L322.793 40.3368L321.877 39.936ZM324.053 35.84L323.229 35.2735L323.217 35.2915L323.205 35.31L324.053 35.84ZM327.381 32.128L326.75 31.3519L326.738 31.3619L326.726 31.3723L327.381 32.128ZM331.989 29.44L331.633 28.5055L331.625 28.5084L331.618 28.5115L331.989 29.44ZM347.093 31.104L346.465 31.8819L346.472 31.8877L346.479 31.8933L347.093 31.104ZM348.629 44.928L347.879 44.2664L347.879 44.2664L348.629 44.928ZM338.133 45.312L337.449 46.0415L337.462 46.0533L337.474 46.0646L338.133 45.312ZM337.109 36.352L336.287 35.7828L336.282 35.79L336.277 35.7973L337.109 36.352ZM339.669 34.432L339.848 35.4159L340.669 35.2666V34.432H339.669ZM339.669 34.176H340.669V33.3952L339.912 33.2059L339.669 34.176ZM338.389 34.048L338.225 35.0344L338.306 35.048H338.389V34.048ZM331.093 35.328L331.523 36.2309L331.54 36.2227L331.557 36.2138L331.093 35.328ZM326.229 38.784L325.522 38.0769L325.522 38.0769L326.229 38.784ZM322.773 43.52L321.887 43.056L321.878 43.0729L321.87 43.0901L322.773 43.52ZM321.493 90.112H320.493V91.112H321.493V90.112ZM333.525 90.112H334.525V89.112H333.525V90.112ZM333.525 96V97H334.525V96H333.525ZM301.525 96H300.525V97H301.525V96ZM301.525 91.112H310.997V89.112H301.525V91.112ZM311.997 90.112V38.272H309.997V90.112H311.997ZM311.17 37.2871L301.698 35.6231L301.352 37.5929L310.824 39.2569L311.17 37.2871ZM302.525 36.608V32.256H300.525V36.608H302.525ZM301.716 33.2375L321.428 29.3975L321.046 27.4345L301.334 31.2744L301.716 33.2375ZM320.237 28.416V39.936H322.237V28.416H320.237ZM321.237 40.936H321.877V38.936H321.237V40.936ZM322.793 40.3368C323.369 39.0195 324.071 37.6973 324.901 36.37L323.205 35.31C322.328 36.7134 321.579 38.1218 320.961 39.5352L322.793 40.3368ZM324.877 36.4065C325.767 35.1127 326.819 33.9387 328.036 32.8837L326.726 31.3723C325.383 32.536 324.217 33.8366 323.229 35.2735L324.877 36.4065ZM328.012 32.9041C329.295 31.8611 330.743 31.0154 332.36 30.3685L331.618 28.5115C329.822 29.2299 328.197 30.1762 326.75 31.3519L328.012 32.9041ZM332.345 30.3745C334.003 29.7429 335.927 29.416 338.133 29.416V27.416C335.731 27.416 333.559 27.7718 331.633 28.5055L332.345 30.3745ZM338.133 29.416C341.732 29.416 344.473 30.2736 346.465 31.8819L347.721 30.3261C345.275 28.3504 342.043 27.416 338.133 27.416V29.416ZM346.479 31.8933C348.497 33.4625 349.549 35.7484 349.549 38.912H351.549C351.549 35.2489 350.297 32.3295 347.707 30.3146L346.479 31.8933ZM349.549 38.912C349.549 41.3084 348.952 43.0507 347.879 44.2664L349.379 45.5896C350.866 43.904 351.549 41.6356 351.549 38.912H349.549ZM347.879 44.2664C346.801 45.488 345.417 46.104 343.637 46.104V48.104C345.953 48.104 347.897 47.2693 349.379 45.5896L347.879 44.2664ZM343.637 46.104C341.508 46.104 339.93 45.5552 338.792 44.5594L337.474 46.0646C339.067 47.4581 341.158 48.104 343.637 48.104V46.104ZM338.817 44.5825C337.664 43.5016 337.085 42.1494 337.085 40.448H335.085C335.085 42.6719 335.871 44.5624 337.449 46.0415L338.817 44.5825ZM337.085 40.448C337.085 38.865 337.403 37.7142 337.941 36.9067L336.277 35.7973C335.45 37.0378 335.085 38.6177 335.085 40.448H337.085ZM337.931 36.9212C338.611 35.9386 339.262 35.5224 339.848 35.4159L339.49 33.4481C338.198 33.683 337.143 34.5467 336.287 35.7828L337.931 36.9212ZM340.669 34.432V34.176H338.669V34.432H340.669ZM339.912 33.2059C339.464 33.0939 338.949 33.048 338.389 33.048V35.048C338.853 35.048 339.191 35.0874 339.426 35.1461L339.912 33.2059ZM338.553 33.0616C337.968 32.964 337.269 32.92 336.469 32.92V34.92C337.205 34.92 337.786 34.9613 338.225 35.0344L338.553 33.0616ZM336.469 32.92C334.496 32.92 332.546 33.4383 330.629 34.4422L331.557 36.2138C333.225 35.3404 334.858 34.92 336.469 34.92V32.92ZM330.663 34.4251C328.765 35.3291 327.05 36.5484 325.522 38.0769L326.936 39.4911C328.309 38.1183 329.837 37.0336 331.523 36.2309L330.663 34.4251ZM325.522 38.0769C324.082 39.5171 322.871 41.1787 321.887 43.056L323.659 43.984C324.553 42.2773 325.646 40.7816 326.936 39.4911L325.522 38.0769ZM321.87 43.0901C320.96 45.0018 320.493 46.9399 320.493 48.896H322.493C322.493 47.2681 322.88 45.6222 323.676 43.9499L321.87 43.0901ZM320.493 48.896V90.112H322.493V48.896H320.493ZM321.493 91.112H333.525V89.112H321.493V91.112ZM332.525 90.112V96H334.525V90.112H332.525ZM333.525 95H301.525V97H333.525V95ZM302.525 96V90.112H300.525V96H302.525ZM367.875 12.8L367.099 13.4306L367.121 13.4572L367.144 13.4823L367.875 12.8ZM367.875 2.56L367.122 1.90149L367.119 1.90507L367.875 2.56ZM378.115 2.56L377.362 3.2185L377.373 3.23058L377.384 3.24232L378.115 2.56ZM378.115 12.8L378.846 13.4823L378.857 13.4706L378.868 13.4585L378.115 12.8ZM358.275 90.112V89.112H357.275V90.112H358.275ZM367.747 90.112V91.112H368.747V90.112H367.747ZM367.747 38.272H368.747V37.4324L367.92 37.2871L367.747 38.272ZM358.275 36.608H357.275V37.4476L358.102 37.5929L358.275 36.608ZM358.275 32.256L358.086 31.274L357.275 31.43V32.256H358.275ZM378.243 28.416H379.243V27.2054L378.054 27.434L378.243 28.416ZM378.243 90.112H377.243V91.112H378.243V90.112ZM387.715 90.112H388.715V89.112H387.715V90.112ZM387.715 96V97H388.715V96H387.715ZM358.275 96H357.275V97H358.275V96ZM372.995 13.72C370.975 13.72 369.564 13.1439 368.606 12.1177L367.144 13.4823C368.575 15.0161 370.578 15.72 372.995 15.72V13.72ZM368.651 12.1694C367.697 10.9948 367.211 9.60024 367.211 7.936H365.211C365.211 10.0264 365.835 11.8745 367.099 13.4306L368.651 12.1694ZM367.211 7.936V7.296H365.211V7.936H367.211ZM367.211 7.296C367.211 5.63128 367.696 4.29303 368.631 3.21493L367.119 1.90507C365.835 3.38696 365.211 5.20605 365.211 7.296H367.211ZM368.628 3.2185C369.591 2.11776 370.995 1.51199 372.995 1.51199V-0.488007C370.558 -0.488007 368.549 0.271559 367.122 1.90149L368.628 3.2185ZM372.995 1.51199C374.995 1.51199 376.399 2.11776 377.362 3.2185L378.868 1.90149C377.441 0.271559 375.432 -0.488007 372.995 -0.488007V1.51199ZM377.384 3.24232C378.393 4.323 378.907 5.65193 378.907 7.296H380.907C380.907 5.1854 380.227 3.35699 378.846 1.87768L377.384 3.24232ZM378.907 7.296V7.936H380.907V7.296H378.907ZM378.907 7.936C378.907 9.58034 378.392 10.9653 377.362 12.1415L378.868 13.4585C380.228 11.904 380.907 10.0463 380.907 7.936H378.907ZM377.384 12.1177C376.426 13.1439 375.015 13.72 372.995 13.72V15.72C375.412 15.72 377.415 15.0161 378.846 13.4823L377.384 12.1177ZM358.275 91.112H367.747V89.112H358.275V91.112ZM368.747 90.112V38.272H366.747V90.112H368.747ZM367.92 37.2871L358.448 35.6231L358.102 37.5929L367.574 39.2569L367.92 37.2871ZM359.275 36.608V32.256H357.275V36.608H359.275ZM358.464 33.238L378.432 29.398L378.054 27.434L358.086 31.274L358.464 33.238ZM377.243 28.416V90.112H379.243V28.416H377.243ZM378.243 91.112H387.715V89.112H378.243V91.112ZM386.715 90.112V96H388.715V90.112H386.715ZM387.715 95H358.275V97H387.715V95ZM359.275 96V90.112H357.275V96H359.275ZM415.29 95.104L414.868 96.0107L414.881 96.0166L414.894 96.0221L415.29 95.104ZM405.946 88.064L406.705 87.4132L405.946 88.064ZM400.058 77.184L399.106 77.4888L399.106 77.4888L400.058 77.184ZM400.186 49.024L399.245 48.6853L399.241 48.6962L400.186 49.024ZM406.33 38.016L405.572 37.3635L405.567 37.3696L405.562 37.3758L406.33 38.016ZM415.674 30.976L416.086 31.8871L416.095 31.8831L416.104 31.8789L415.674 30.976ZM439.098 30.72L439.508 29.8081L439.508 29.8081L439.098 30.72ZM447.674 37.248L446.9 37.8812L446.911 37.894L446.921 37.9065L447.674 37.248ZM453.178 47.104L452.229 47.4202L452.229 47.4202L453.178 47.104ZM455.098 62.592V63.592H456.098V62.592H455.098ZM409.658 62.592V61.592H408.658V62.592H409.658ZM415.034 83.072L414.275 83.7228L414.282 83.7316L415.034 83.072ZM442.17 86.144L442.74 86.9654L442.745 86.9622L442.17 86.144ZM449.594 77.568L450.131 76.7243L449.205 76.1348L448.704 77.1121L449.594 77.568ZM453.818 80.256L454.751 80.615L455.045 79.8515L454.355 79.4123L453.818 80.256ZM450.234 86.784L449.422 86.1997L449.418 86.206L450.234 86.784ZM444.858 92.288L445.442 93.0995L445.453 93.092L445.463 93.0842L444.858 92.288ZM437.434 96L437.118 95.0513L437.105 95.0556L437.092 95.0602L437.434 96ZM409.658 56.704H408.658V57.704H409.658V56.704ZM444.09 56.704V57.704H445.09V56.704H444.09ZM443.066 47.104L442.092 47.3312L442.096 47.3465L442.1 47.3617L443.066 47.104ZM440.122 40.448L439.313 41.0362L439.313 41.0362L440.122 40.448ZM434.874 36.096L434.398 36.9753L434.419 36.9869L434.441 36.9975L434.874 36.096ZM419.77 35.968L420.189 36.876L420.189 36.876L419.77 35.968ZM414.138 40.32L413.364 39.6868L413.355 39.6975L413.347 39.7085L414.138 40.32ZM410.81 46.976L411.765 47.2724L411.768 47.2633L410.81 46.976ZM427.962 96.536C423.385 96.536 419.299 95.7458 415.686 94.1859L414.894 96.0221C418.791 97.7049 423.152 98.536 427.962 98.536V96.536ZM415.712 94.1973C412.168 92.5491 409.17 90.2883 406.705 87.4132L405.187 88.7148C407.842 91.8131 411.073 94.2456 414.868 96.0107L415.712 94.1973ZM406.705 87.4132C404.243 84.541 402.341 81.0364 401.01 76.8792L399.106 77.4888C400.506 81.865 402.529 85.6137 405.187 88.7148L406.705 87.4132ZM401.01 76.8792C399.681 72.7255 399.01 68.0943 399.01 62.976H397.01C397.01 68.2684 397.704 73.1091 399.106 77.4888L401.01 76.8792ZM399.01 62.976C399.01 57.9504 399.722 53.4126 401.131 49.3518L399.241 48.6962C397.749 52.9981 397.01 57.7616 397.01 62.976H399.01ZM401.127 49.3627C402.629 45.1913 404.622 41.6274 407.098 38.6562L405.562 37.3758C402.918 40.5486 400.815 44.3234 399.245 48.6853L401.127 49.3627ZM407.088 38.6685C409.641 35.7034 412.639 33.4466 416.086 31.8871L415.262 30.0649C411.541 31.7481 408.31 34.1846 405.572 37.3635L407.088 38.6685ZM416.104 31.8789C419.544 30.2408 423.321 29.416 427.45 29.416V27.416C423.046 27.416 418.972 28.2978 415.244 30.0731L416.104 31.8789ZM427.45 29.416C431.683 29.416 435.423 30.1627 438.688 31.6319L439.508 29.8081C435.947 28.2053 431.921 27.416 427.45 27.416V29.416ZM438.688 31.6319C441.964 33.1063 444.697 35.1885 446.9 37.8812L448.448 36.6148C446.043 33.6755 443.059 31.4057 439.508 29.8081L438.688 31.6319ZM446.921 37.9065C449.214 40.5263 450.986 43.6916 452.229 47.4202L454.127 46.7878C452.81 42.8364 450.913 39.431 448.427 36.5895L446.921 37.9065ZM452.229 47.4202C453.472 51.1471 454.098 55.2203 454.098 59.648H456.098C456.098 55.0303 455.444 50.7409 454.127 46.7878L452.229 47.4202ZM454.098 59.648V62.592H456.098V59.648H454.098ZM455.098 61.592H409.658V63.592H455.098V61.592ZM408.658 62.592V65.92H410.658V62.592H408.658ZM408.658 65.92C408.658 73.3353 410.492 79.3094 414.275 83.7228L415.793 82.4212C412.408 78.472 410.658 73.0114 410.658 65.92H408.658ZM414.282 83.7316C418.16 88.1501 423.308 90.344 429.626 90.344V88.344C423.826 88.344 419.247 86.3566 415.786 82.4124L414.282 83.7316ZM429.626 90.344C435.039 90.344 439.445 89.2541 442.74 86.9654L441.6 85.3226C438.751 87.3005 434.794 88.344 429.626 88.344V90.344ZM442.745 86.9622C446.038 84.6483 448.619 81.6643 450.484 78.0239L448.704 77.1121C446.985 80.469 444.617 83.2023 441.595 85.3258L442.745 86.9622ZM449.057 78.4117L453.281 81.0997L454.355 79.4123L450.131 76.7243L449.057 78.4117ZM452.885 79.897C452.065 82.0277 450.914 84.1287 449.422 86.1997L451.046 87.3683C452.626 85.1727 453.864 82.9216 454.751 80.615L452.885 79.897ZM449.418 86.206C448.03 88.1655 446.311 89.9279 444.253 91.4918L445.463 93.0842C447.672 91.4054 449.537 89.4985 451.05 87.362L449.418 86.206ZM444.274 91.4765C442.232 92.9464 439.85 94.1405 437.118 95.0513L437.75 96.9487C440.65 95.9822 443.217 94.7016 445.442 93.0995L444.274 91.4765ZM437.092 95.0602C434.402 96.0383 431.363 96.536 427.962 96.536V98.536C431.558 98.536 434.834 98.0097 437.776 96.9398L437.092 95.0602ZM409.658 57.704H444.09V55.704H409.658V57.704ZM445.09 56.704V55.424H443.09V56.704H445.09ZM445.09 55.424C445.09 52.3612 444.74 49.5003 444.032 46.8463L442.1 47.3617C442.757 49.8277 443.09 52.5135 443.09 55.424H445.09ZM444.04 46.8768C443.416 44.2038 442.384 41.8586 440.931 39.8598L439.313 41.0362C440.59 42.792 441.521 44.8842 442.092 47.3312L444.04 46.8768ZM440.931 39.8598C439.466 37.8458 437.586 36.2887 435.307 35.1945L434.441 36.9975C436.428 37.9513 438.047 39.2955 439.313 41.0362L440.931 39.8598ZM435.35 35.2167C433.124 34.011 430.477 33.432 427.45 33.432V35.432C430.225 35.432 432.528 35.9623 434.398 36.9753L435.35 35.2167ZM427.45 33.432C424.431 33.432 421.723 33.9651 419.351 35.06L420.189 36.876C422.254 35.9229 424.667 35.432 427.45 35.432V33.432ZM419.351 35.06C416.996 36.1471 414.997 37.6912 413.364 39.6868L414.912 40.9532C416.351 39.1941 418.107 37.8369 420.189 36.876L419.351 35.06ZM413.347 39.7085C411.812 41.6943 410.651 44.0261 409.852 46.6886L411.768 47.2633C412.505 44.8059 413.562 42.7004 414.929 40.9314L413.347 39.7085ZM409.855 46.6796C409.053 49.2636 408.658 52.0958 408.658 55.168H410.658C410.658 52.2668 411.031 49.6377 411.765 47.2724L409.855 46.6796ZM408.658 55.168V56.704H410.658V55.168H408.658ZM467.275 90.112V89.112H466.275V90.112H467.275ZM476.747 90.112V91.112H477.747V90.112H476.747ZM476.747 38.272H477.747V37.4324L476.92 37.2871L476.747 38.272ZM467.275 36.608H466.275V37.4476L467.102 37.5929L467.275 36.608ZM467.275 32.256L467.084 31.2744L466.275 31.432V32.256H467.275ZM486.987 28.416H487.987V27.2024L486.796 27.4345L486.987 28.416ZM486.987 39.936H485.987V40.936H486.987V39.936ZM487.499 39.936V40.936H488.176L488.427 40.3074L487.499 39.936ZM489.803 35.968L489.027 35.3374L489.015 35.3525L489.003 35.368L489.803 35.968ZM493.771 32.256L493.206 31.4307L493.196 31.4379L493.186 31.4453L493.771 32.256ZM499.403 29.568L499.708 30.5204L499.725 30.515L499.742 30.5089L499.403 29.568ZM523.467 34.688L522.692 35.3204L522.699 35.329L522.707 35.3375L523.467 34.688ZM528.715 90.112H527.715V91.112H528.715V90.112ZM538.187 90.112H539.187V89.112H538.187V90.112ZM538.187 96V97H539.187V96H538.187ZM508.747 96H507.747V97H508.747V96ZM508.747 90.112V89.112H507.747V90.112H508.747ZM518.219 90.112V91.112H519.219V90.112H518.219ZM497.099 36.48L496.836 35.5152L496.824 35.5185L497.099 36.48ZM492.107 38.912L491.522 38.1013L491.51 38.1093L491.5 38.1176L492.107 38.912ZM488.523 43.008L487.658 42.507L487.647 42.5244L487.638 42.5422L488.523 43.008ZM487.243 90.112H486.243V91.112H487.243V90.112ZM496.715 90.112H497.715V89.112H496.715V90.112ZM496.715 96V97H497.715V96H496.715ZM467.275 96H466.275V97H467.275V96ZM467.275 91.112H476.747V89.112H467.275V91.112ZM477.747 90.112V38.272H475.747V90.112H477.747ZM476.92 37.2871L467.448 35.6231L467.102 37.5929L476.574 39.2569L476.92 37.2871ZM468.275 36.608V32.256H466.275V36.608H468.275ZM467.466 33.2375L487.178 29.3975L486.796 27.4345L467.084 31.2744L467.466 33.2375ZM485.987 28.416V39.936H487.987V28.416H485.987ZM486.987 40.936H487.499V38.936H486.987V40.936ZM488.427 40.3074C488.9 39.1255 489.62 37.879 490.603 36.568L489.003 35.368C487.938 36.7876 487.122 38.1865 486.571 39.5646L488.427 40.3074ZM490.579 36.5986C491.629 35.3064 492.886 34.1285 494.356 33.0667L493.186 31.4453C491.584 32.6021 490.196 33.8989 489.027 35.3374L490.579 36.5986ZM494.336 33.0813C495.867 32.0338 497.654 31.1776 499.708 30.5204L499.098 28.6156C496.885 29.3237 494.918 30.2596 493.206 31.4307L494.336 33.0813ZM499.742 30.5089C501.753 29.7847 503.984 29.416 506.443 29.416V27.416C503.782 27.416 501.319 27.8153 499.064 28.6271L499.742 30.5089ZM506.443 29.416C514.224 29.416 519.545 31.4648 522.692 35.3204L524.242 34.0556C520.562 29.5485 514.534 27.416 506.443 27.416V29.416ZM522.707 35.3375C525.986 39.1772 527.715 45.0865 527.715 53.248H529.715C529.715 44.8548 527.945 38.3908 524.227 34.0385L522.707 35.3375ZM527.715 53.248V90.112H529.715V53.248H527.715ZM528.715 91.112H538.187V89.112H528.715V91.112ZM537.187 90.112V96H539.187V90.112H537.187ZM538.187 95H508.747V97H538.187V95ZM509.747 96V90.112H507.747V96H509.747ZM508.747 91.112H518.219V89.112H508.747V91.112ZM519.219 90.112V54.144H517.219V90.112H519.219ZM519.219 54.144C519.219 47.8842 517.908 43.003 515.113 39.6767C512.29 36.317 508.098 34.712 502.731 34.712V36.712C507.689 36.712 511.242 38.179 513.581 40.9633C515.949 43.781 517.219 48.1158 517.219 54.144H519.219ZM502.731 34.712C500.762 34.712 498.796 34.9807 496.836 35.5152L497.362 37.4448C499.157 36.9553 500.946 36.712 502.731 36.712V34.712ZM496.824 35.5185C494.919 36.0629 493.15 36.9252 491.522 38.1013L492.692 39.7227C494.136 38.6801 495.695 37.9211 497.374 37.4415L496.824 35.5185ZM491.5 38.1176C489.942 39.3089 488.66 40.7749 487.658 42.507L489.388 43.509C490.263 41.9985 491.371 40.7337 492.714 39.7064L491.5 38.1176ZM487.638 42.5422C486.695 44.3345 486.243 46.421 486.243 48.768H488.243C488.243 46.6777 488.645 44.9242 489.408 43.4737L487.638 42.5422ZM486.243 48.768V90.112H488.243V48.768H486.243ZM487.243 91.112H496.715V89.112H487.243V91.112ZM495.715 90.112V96H497.715V90.112H495.715ZM496.715 95H467.275V97H496.715V95ZM468.275 96V90.112H466.275V96H468.275ZM565.665 95.104L565.243 96.0107L565.256 96.0166L565.269 96.0221L565.665 95.104ZM556.321 88.064L555.553 88.7042L555.562 88.7148L556.321 88.064ZM550.433 77.184L549.481 77.4888L549.482 77.4944L550.433 77.184ZM550.561 48.64L549.62 48.3013L549.617 48.3097L549.614 48.3181L550.561 48.64ZM556.961 37.76L556.223 37.0852L556.223 37.0852L556.961 37.76ZM566.689 30.848L566.3 29.9267L566.293 29.9299L566.689 30.848ZM595.745 32.896L595.148 33.698L595.157 33.7051L595.167 33.712L595.745 32.896ZM599.713 50.432L598.986 49.7454L598.976 49.7564L598.966 49.7676L599.713 50.432ZM588.065 50.432L588.833 49.7918L588.833 49.7918L588.065 50.432ZM587.553 40.064L588.377 40.6305L588.377 40.6305L587.553 40.064ZM591.521 36.864L591.931 37.7759L592.521 37.5106V36.864H591.521ZM591.521 36.48H592.521V35.9212L592.045 35.6283L591.521 36.48ZM587.169 34.944L586.973 35.9246L586.982 35.9263L587.169 34.944ZM572.193 36.096L571.795 35.1784L571.784 35.1835L572.193 36.096ZM565.793 40.832L566.531 41.5063L566.539 41.4985L566.546 41.4905L565.793 40.832ZM561.569 47.872L562.502 48.233L562.505 48.2231L561.569 47.872ZM561.441 75.648L560.49 75.9558L560.492 75.9642L561.441 75.648ZM565.409 82.944L564.641 83.5842L564.648 83.5934L564.656 83.6025L565.409 82.944ZM571.681 87.68L571.26 88.5871L571.272 88.5925L571.681 87.68ZM592.289 86.144L592.87 86.9577L592.878 86.9523L592.885 86.9467L592.289 86.144ZM599.457 77.568L600.006 76.732L599.075 76.121L598.567 77.1121L599.457 77.568ZM603.553 80.256L604.498 80.5831L604.753 79.8472L604.102 79.42L603.553 80.256ZM600.225 86.784L601.041 87.362L601.047 87.3542L601.052 87.3463L600.225 86.784ZM594.977 92.288L595.577 93.088L595.587 93.0802L595.598 93.072L594.977 92.288ZM587.681 96L587.365 95.0513L587.347 95.0572L587.33 95.0637L587.681 96ZM578.465 96.536C573.8 96.536 569.672 95.7449 566.061 94.1859L565.269 96.0221C569.168 97.7058 573.573 98.536 578.465 98.536V96.536ZM566.087 94.1973C562.543 92.5491 559.545 90.2883 557.08 87.4132L555.562 88.7148C558.217 91.8131 561.448 94.2456 565.243 96.0107L566.087 94.1973ZM557.089 87.4238C554.618 84.4585 552.714 80.9465 551.384 76.8736L549.482 77.4944C550.883 81.7842 552.904 85.5255 555.553 88.7042L557.089 87.4238ZM551.385 76.8792C550.056 72.7255 549.385 68.0943 549.385 62.976H547.385C547.385 68.2684 548.079 73.1091 549.481 77.4888L551.385 76.8792ZM549.385 62.976C549.385 57.7762 550.098 53.1086 551.508 48.9619L549.614 48.3181C548.123 52.7047 547.385 57.5944 547.385 62.976H549.385ZM551.502 48.9787C552.999 44.8214 555.068 41.3128 557.699 38.4348L556.223 37.0852C553.393 40.1805 551.195 43.9253 549.62 48.3013L551.502 48.9787ZM557.699 38.4348C560.333 35.5536 563.459 33.332 567.085 31.7661L566.293 29.9299C562.41 31.6067 559.05 33.9931 556.223 37.0852L557.699 38.4348ZM567.078 31.7692C570.782 30.2051 574.872 29.416 579.361 29.416V27.416C574.634 27.416 570.276 28.2482 566.3 29.9267L567.078 31.7692ZM579.361 29.416C586.138 29.416 591.365 30.8809 595.148 33.698L596.342 32.094C592.104 28.9378 586.408 27.416 579.361 27.416V29.416ZM595.167 33.712C599.032 36.4498 600.889 39.873 600.889 44.032H602.889C602.889 39.1456 600.65 35.1448 596.323 32.08L595.167 33.712ZM600.889 44.032C600.889 46.5847 600.215 48.4445 598.986 49.7454L600.44 51.1186C602.113 49.3475 602.889 46.9407 602.889 44.032H600.889ZM598.966 49.7676C597.829 51.0468 596.206 51.736 593.953 51.736V53.736C596.65 53.736 598.867 52.8891 600.46 51.0964L598.966 49.7676ZM593.953 51.736C591.502 51.736 589.866 51.0314 588.833 49.7918L587.297 51.0722C588.824 52.9046 591.113 53.736 593.953 53.736V51.736ZM588.833 49.7918C587.713 48.4481 587.145 46.8443 587.145 44.928H585.145C585.145 47.2784 585.857 49.3439 587.297 51.0722L588.833 49.7918ZM587.145 44.928C587.145 43.2251 587.568 41.8076 588.377 40.6305L586.729 39.4975C585.661 41.0511 585.145 42.8763 585.145 44.928H587.145ZM588.377 40.6305C589.199 39.4348 590.369 38.4788 591.931 37.7759L591.111 35.9521C589.259 36.7852 587.784 37.9625 586.729 39.4975L588.377 40.6305ZM592.521 36.864V36.48H590.521V36.864H592.521ZM592.045 35.6283C590.8 34.8621 589.223 34.3173 587.356 33.9617L586.982 35.9263C588.699 36.2534 590.023 36.7326 590.997 37.3317L592.045 35.6283ZM587.365 33.9634C585.568 33.604 583.277 33.432 580.513 33.432V35.432C583.21 35.432 585.356 35.6013 586.973 35.9246L587.365 33.9634ZM580.513 33.432C577.399 33.432 574.49 34.011 571.795 35.1784L572.591 37.0136C575.016 35.9624 577.653 35.432 580.513 35.432V33.432ZM571.784 35.1835C569.177 36.352 566.927 38.0175 565.04 40.1735L566.546 41.4905C568.243 39.5505 570.259 38.0587 572.602 37.0085L571.784 35.1835ZM565.055 40.1577C563.169 42.2233 561.697 44.6825 560.633 47.5209L562.505 48.2231C563.489 45.6001 564.833 43.366 566.531 41.5063L565.055 40.1577ZM560.636 47.511C559.563 50.2838 559.033 53.3091 559.033 56.576H561.033C561.033 53.5282 561.527 50.7509 562.502 48.233L560.636 47.511ZM559.033 56.576V66.048H561.033V56.576H559.033ZM559.033 66.048C559.033 69.6361 559.514 72.9416 560.49 75.9558L562.392 75.3402C561.49 72.5517 561.033 69.4573 561.033 66.048H559.033ZM560.492 75.9642C561.466 78.8851 562.846 81.4301 564.641 83.5842L566.177 82.3038C564.559 80.3619 563.293 78.0429 562.39 75.3318L560.492 75.9642ZM564.656 83.6025C566.537 85.752 568.74 87.4169 571.26 88.587L572.102 86.773C569.844 85.7244 567.865 84.232 566.162 82.2855L564.656 83.6025ZM571.272 88.5925C573.891 89.7667 576.807 90.344 580.001 90.344V88.344C577.051 88.344 574.42 87.812 572.09 86.7675L571.272 88.5925ZM580.001 90.344C585.331 90.344 589.656 89.2534 592.87 86.9577L591.708 85.3303C588.948 87.3013 585.082 88.344 580.001 88.344V90.344ZM592.885 86.9467C596.002 84.6314 598.489 81.6513 600.347 78.0239L598.567 77.1121C596.841 80.4821 594.549 83.2193 591.693 85.3413L592.885 86.9467ZM598.908 78.404L603.004 81.092L604.102 79.42L600.006 76.732L598.908 78.404ZM602.608 79.9289C601.872 82.0565 600.804 84.1541 599.398 86.2217L601.052 87.3463C602.547 85.1472 603.698 82.8928 604.498 80.5831L602.608 79.9289ZM599.409 86.206C598.015 88.1732 596.333 89.9392 594.356 91.504L595.598 93.072C597.717 91.3941 599.533 89.4908 601.041 87.362L599.409 86.206ZM594.377 91.488C592.427 92.9502 590.095 94.1413 587.365 95.0513L587.997 96.9487C590.899 95.9813 593.431 94.6978 595.577 93.088L594.377 91.488ZM587.33 95.0637C584.729 96.0391 581.778 96.536 578.465 96.536V98.536C581.978 98.536 585.172 98.0089 588.032 96.9363L587.33 95.0637ZM630.415 95.104L629.993 96.0107L630.006 96.0166L630.019 96.0221L630.415 95.104ZM621.071 88.064L621.83 87.4132L621.071 88.064ZM615.183 77.184L614.231 77.4888L614.231 77.4888L615.183 77.184ZM615.311 49.024L614.37 48.6853L614.366 48.6962L615.311 49.024ZM621.455 38.016L620.697 37.3635L620.692 37.3696L620.687 37.3758L621.455 38.016ZM630.799 30.976L631.211 31.8871L631.22 31.8831L631.229 31.8789L630.799 30.976ZM654.223 30.72L654.633 29.8081L654.633 29.8081L654.223 30.72ZM662.799 37.248L662.025 37.8812L662.036 37.894L662.046 37.9065L662.799 37.248ZM668.303 47.104L667.354 47.4202L667.354 47.4202L668.303 47.104ZM670.223 62.592V63.592H671.223V62.592H670.223ZM624.783 62.592V61.592H623.783V62.592H624.783ZM630.159 83.072L629.4 83.7228L629.407 83.7316L630.159 83.072ZM657.295 86.144L657.865 86.9654L657.87 86.9622L657.295 86.144ZM664.719 77.568L665.256 76.7243L664.33 76.1348L663.829 77.1121L664.719 77.568ZM668.943 80.256L669.876 80.615L670.17 79.8515L669.48 79.4123L668.943 80.256ZM665.359 86.784L664.547 86.1997L664.543 86.206L665.359 86.784ZM659.983 92.288L660.567 93.0995L660.578 93.092L660.588 93.0842L659.983 92.288ZM652.559 96L652.243 95.0513L652.23 95.0556L652.217 95.0602L652.559 96ZM624.783 56.704H623.783V57.704H624.783V56.704ZM659.215 56.704V57.704H660.215V56.704H659.215ZM658.191 47.104L657.217 47.3312L657.221 47.3465L657.225 47.3617L658.191 47.104ZM655.247 40.448L654.438 41.0362L654.438 41.0362L655.247 40.448ZM649.999 36.096L649.523 36.9753L649.544 36.9869L649.566 36.9975L649.999 36.096ZM634.895 35.968L635.314 36.876L635.314 36.876L634.895 35.968ZM629.263 40.32L628.489 39.6868L628.48 39.6975L628.472 39.7085L629.263 40.32ZM625.935 46.976L626.89 47.2724L626.893 47.2633L625.935 46.976ZM643.087 96.536C638.51 96.536 634.424 95.7458 630.811 94.1859L630.019 96.0221C633.916 97.7049 638.277 98.536 643.087 98.536V96.536ZM630.837 94.1973C627.293 92.5491 624.295 90.2883 621.83 87.4132L620.312 88.7148C622.967 91.8131 626.198 94.2456 629.993 96.0107L630.837 94.1973ZM621.83 87.4132C619.368 84.541 617.466 81.0364 616.135 76.8792L614.231 77.4888C615.631 81.865 617.654 85.6137 620.312 88.7148L621.83 87.4132ZM616.135 76.8792C614.806 72.7255 614.135 68.0943 614.135 62.976H612.135C612.135 68.2684 612.829 73.1091 614.231 77.4888L616.135 76.8792ZM614.135 62.976C614.135 57.9504 614.847 53.4126 616.256 49.3518L614.366 48.6962C612.874 52.9981 612.135 57.7616 612.135 62.976H614.135ZM616.252 49.3627C617.754 45.1913 619.747 41.6274 622.223 38.6562L620.687 37.3758C618.043 40.5486 615.94 44.3234 614.37 48.6853L616.252 49.3627ZM622.213 38.6685C624.766 35.7034 627.764 33.4466 631.211 31.8871L630.387 30.0649C626.666 31.7481 623.435 34.1846 620.697 37.3635L622.213 38.6685ZM631.229 31.8789C634.669 30.2408 638.446 29.416 642.575 29.416V27.416C638.171 27.416 634.097 28.2978 630.369 30.0731L631.229 31.8789ZM642.575 29.416C646.808 29.416 650.548 30.1627 653.813 31.6319L654.633 29.8081C651.072 28.2053 647.046 27.416 642.575 27.416V29.416ZM653.813 31.6319C657.089 33.1063 659.822 35.1885 662.025 37.8812L663.573 36.6148C661.168 33.6755 658.184 31.4057 654.633 29.8081L653.813 31.6319ZM662.046 37.9065C664.339 40.5263 666.111 43.6916 667.354 47.4202L669.252 46.7878C667.935 42.8364 666.038 39.431 663.552 36.5895L662.046 37.9065ZM667.354 47.4202C668.597 51.1471 669.223 55.2203 669.223 59.648H671.223C671.223 55.0303 670.569 50.7409 669.252 46.7878L667.354 47.4202ZM669.223 59.648V62.592H671.223V59.648H669.223ZM670.223 61.592H624.783V63.592H670.223V61.592ZM623.783 62.592V65.92H625.783V62.592H623.783ZM623.783 65.92C623.783 73.3353 625.617 79.3094 629.4 83.7228L630.918 82.4212C627.533 78.472 625.783 73.0114 625.783 65.92H623.783ZM629.407 83.7316C633.285 88.1501 638.433 90.344 644.751 90.344V88.344C638.951 88.344 634.372 86.3566 630.911 82.4124L629.407 83.7316ZM644.751 90.344C650.164 90.344 654.57 89.2541 657.865 86.9654L656.725 85.3226C653.876 87.3005 649.919 88.344 644.751 88.344V90.344ZM657.87 86.9622C661.163 84.6483 663.744 81.6643 665.609 78.0239L663.829 77.1121C662.11 80.469 659.742 83.2023 656.72 85.3258L657.87 86.9622ZM664.182 78.4117L668.406 81.0997L669.48 79.4123L665.256 76.7243L664.182 78.4117ZM668.01 79.897C667.19 82.0277 666.039 84.1287 664.547 86.1997L666.171 87.3683C667.751 85.1727 668.989 82.9216 669.876 80.615L668.01 79.897ZM664.543 86.206C663.155 88.1655 661.436 89.9279 659.378 91.4918L660.588 93.0842C662.797 91.4054 664.662 89.4985 666.175 87.362L664.543 86.206ZM659.399 91.4765C657.357 92.9464 654.975 94.1405 652.243 95.0513L652.875 96.9487C655.775 95.9822 658.342 94.7016 660.567 93.0995L659.399 91.4765ZM652.217 95.0602C649.527 96.0383 646.488 96.536 643.087 96.536V98.536C646.683 98.536 649.959 98.0097 652.901 96.9398L652.217 95.0602ZM624.783 57.704H659.215V55.704H624.783V57.704ZM660.215 56.704V55.424H658.215V56.704H660.215ZM660.215 55.424C660.215 52.3612 659.865 49.5003 659.157 46.8463L657.225 47.3617C657.882 49.8277 658.215 52.5135 658.215 55.424H660.215ZM659.165 46.8768C658.541 44.2038 657.509 41.8586 656.056 39.8598L654.438 41.0362C655.715 42.792 656.646 44.8842 657.217 47.3312L659.165 46.8768ZM656.056 39.8598C654.591 37.8458 652.711 36.2887 650.432 35.1945L649.566 36.9975C651.553 37.9513 653.172 39.2955 654.438 41.0362L656.056 39.8598ZM650.475 35.2167C648.249 34.011 645.602 33.432 642.575 33.432V35.432C645.35 35.432 647.653 35.9623 649.523 36.9753L650.475 35.2167ZM642.575 33.432C639.556 33.432 636.848 33.9651 634.476 35.06L635.314 36.876C637.379 35.9229 639.792 35.432 642.575 35.432V33.432ZM634.476 35.06C632.121 36.1471 630.122 37.6912 628.489 39.6868L630.037 40.9532C631.476 39.1941 633.232 37.8369 635.314 36.876L634.476 35.06ZM628.472 39.7085C626.937 41.6943 625.776 44.0261 624.977 46.6886L626.893 47.2633C627.63 44.8059 628.687 42.7004 630.054 40.9314L628.472 39.7085ZM624.98 46.6796C624.178 49.2636 623.783 52.0958 623.783 55.168H625.783C625.783 52.2668 626.156 49.6377 626.89 47.2724L624.98 46.6796ZM623.783 55.168V56.704H625.783V55.168H623.783Z" fill="#D9D9D9" fill-opacity="0.15"/>
</svg>
