<svg width="508" height="124" viewBox="0 0 508 124" fill="none" xmlns="http://www.w3.org/2000/svg">
<path d="M0.0400004 90.112V89.112H-0.96V90.112H0.0400004ZM9.64 90.112V91.112H10.64V90.112H9.64ZM9.64 12.544H10.64V11.544H9.64V12.544ZM0.0400004 12.544H-0.96V13.544H0.0400004V12.544ZM0.0400004 6.656V5.656H-0.96V6.656H0.0400004ZM60.328 12.8L59.6355 13.5214L59.6428 13.5284L59.6503 13.5354L60.328 12.8ZM60.2 48.64L60.8931 49.3608L60.2 48.64ZM20.648 55.04V54.04H19.648V55.04H20.648ZM20.648 90.112H19.648V91.112H20.648V90.112ZM32.808 90.112H33.808V89.112H32.808V90.112ZM32.808 96V97H33.808V96H32.808ZM0.0400004 96H-0.96V97H0.0400004V96ZM20.648 48.768H19.648V49.768H20.648V48.768ZM51.368 44.416L50.6072 43.7671L50.6016 43.7736L50.5961 43.7803L51.368 44.416ZM51.368 17.28L50.5961 17.9157L50.6016 17.9224L50.6072 17.9289L51.368 17.28ZM20.648 12.928V11.928H19.648V12.928H20.648ZM0.0400004 91.112H9.64V89.112H0.0400004V91.112ZM10.64 90.112V12.544H8.64V90.112H10.64ZM9.64 11.544H0.0400004V13.544H9.64V11.544ZM1.04 12.544V6.656H-0.96V12.544H1.04ZM0.0400004 7.656H41.768V5.656H0.0400004V7.656ZM41.768 7.656C49.7138 7.656 55.615 9.66177 59.6355 13.5214L61.0205 12.0786C56.5076 7.74623 50.0356 5.656 41.768 5.656V7.656ZM59.6503 13.5354C63.7358 17.3004 65.856 22.9251 65.856 30.592H67.856C67.856 22.5576 65.6243 16.321 61.0057 12.0646L59.6503 13.5354ZM65.856 30.592C65.856 38.1607 63.6998 43.8876 59.5069 47.9192L60.8931 49.3608C65.5749 44.8591 67.856 38.554 67.856 30.592H65.856ZM59.5069 47.9192C55.3071 51.9575 49.356 54.04 41.512 54.04V56.04C49.7107 56.04 56.2183 53.8559 60.8931 49.3608L59.5069 47.9192ZM41.512 54.04H20.648V56.04H41.512V54.04ZM19.648 55.04V90.112H21.648V55.04H19.648ZM20.648 91.112H32.808V89.112H20.648V91.112ZM31.808 90.112V96H33.808V90.112H31.808ZM32.808 95H0.0400004V97H32.808V95ZM1.04 96V90.112H-0.96V96H1.04ZM20.648 49.768H40.872V47.768H20.648V49.768ZM40.872 49.768C45.7047 49.768 49.5181 48.2354 52.1399 45.0517L50.5961 43.7803C48.4393 46.3993 45.2553 47.768 40.872 47.768V49.768ZM52.1288 45.0649C54.7732 41.9647 56.08 38.1866 56.08 33.792H54.08C54.08 37.7601 52.9122 41.0646 50.6072 43.7671L52.1288 45.0649ZM56.08 33.792V27.904H54.08V33.792H56.08ZM56.08 27.904C56.08 23.5094 54.7732 19.7313 52.1288 16.6311L50.6072 17.9289C52.9122 20.6314 54.08 23.9359 54.08 27.904H56.08ZM52.1399 16.6443C49.5181 13.4606 45.7047 11.928 40.872 11.928V13.928C45.2553 13.928 48.4393 15.2967 50.5961 17.9157L52.1399 16.6443ZM40.872 11.928H20.648V13.928H40.872V11.928ZM19.648 12.928V48.768H21.648V12.928H19.648ZM78.15 90.112V89.112H77.15V90.112H78.15ZM87.622 90.112V91.112H88.622V90.112H87.622ZM87.622 38.272H88.622V37.4324L87.795 37.2871L87.622 38.272ZM78.15 36.608H77.15V37.4476L77.977 37.5929L78.15 36.608ZM78.15 32.256L77.9588 31.2744L77.15 31.432V32.256H78.15ZM97.862 28.416H98.862V27.2024L97.6708 27.4345L97.862 28.416ZM97.862 39.936H96.862V40.936H97.862V39.936ZM98.502 39.936V40.936H99.156L99.4182 40.3368L98.502 39.936ZM100.678 35.84L99.854 35.2735L99.8416 35.2915L99.83 35.31L100.678 35.84ZM104.006 32.128L103.375 31.3519L103.363 31.3619L103.351 31.3723L104.006 32.128ZM108.614 29.44L108.258 28.5055L108.25 28.5084L108.243 28.5115L108.614 29.44ZM123.718 31.104L123.09 31.8819L123.097 31.8877L123.104 31.8933L123.718 31.104ZM125.254 44.928L124.504 44.2664L125.254 44.928ZM114.758 45.312L114.074 46.0415L114.087 46.0533L114.099 46.0646L114.758 45.312ZM113.734 36.352L112.912 35.7828L112.907 35.79L112.902 35.7973L113.734 36.352ZM116.294 34.432L116.473 35.4159L117.294 35.2666V34.432H116.294ZM116.294 34.176H117.294V33.3952L116.537 33.2059L116.294 34.176ZM115.014 34.048L114.85 35.0344L114.931 35.048H115.014V34.048ZM107.718 35.328L108.148 36.2309L108.165 36.2227L108.182 36.2138L107.718 35.328ZM102.854 38.784L102.147 38.0769L102.854 38.784ZM99.398 43.52L98.5122 43.056L98.5033 43.0729L98.4951 43.0901L99.398 43.52ZM98.118 90.112H97.118V91.112H98.118V90.112ZM110.15 90.112H111.15V89.112H110.15V90.112ZM110.15 96V97H111.15V96H110.15ZM78.15 96H77.15V97H78.15V96ZM78.15 91.112H87.622V89.112H78.15V91.112ZM88.622 90.112V38.272H86.622V90.112H88.622ZM87.795 37.2871L78.323 35.6231L77.977 37.5929L87.449 39.2569L87.795 37.2871ZM79.15 36.608V32.256H77.15V36.608H79.15ZM78.3412 33.2375L98.0532 29.3976L97.6708 27.4345L77.9588 31.2744L78.3412 33.2375ZM96.862 28.416V39.936H98.862V28.416H96.862ZM97.862 40.936H98.502V38.936H97.862V40.936ZM99.4182 40.3368C99.9945 39.0195 100.696 37.6973 101.526 36.37L99.83 35.31C98.9529 36.7134 98.2042 38.1218 97.5858 39.5352L99.4182 40.3368ZM101.502 36.4065C102.392 35.1127 103.444 33.9387 104.661 32.8837L103.351 31.3723C102.008 32.536 100.842 33.8366 99.854 35.2735L101.502 36.4065ZM104.637 32.9041C105.92 31.8611 107.368 31.0154 108.985 30.3685L108.243 28.5115C106.447 29.2299 104.822 30.1762 103.375 31.3519L104.637 32.9041ZM108.97 30.3745C110.628 29.7429 112.552 29.416 114.758 29.416V27.416C112.356 27.416 110.184 27.7718 108.258 28.5055L108.97 30.3745ZM114.758 29.416C118.357 29.416 121.098 30.2736 123.09 31.8819L124.346 30.3261C121.9 28.3504 118.668 27.416 114.758 27.416V29.416ZM123.104 31.8933C125.122 33.4625 126.174 35.7484 126.174 38.912H128.174C128.174 35.2489 126.923 32.3295 124.332 30.3146L123.104 31.8933ZM126.174 38.912C126.174 41.3084 125.577 43.0507 124.504 44.2664L126.004 45.5896C127.491 43.904 128.174 41.6356 128.174 38.912H126.174ZM124.504 44.2664C123.426 45.488 122.042 46.104 120.262 46.104V48.104C122.578 48.104 124.522 47.2693 126.004 45.5896L124.504 44.2664ZM120.262 46.104C118.133 46.104 116.555 45.5552 115.417 44.5594L114.099 46.0646C115.692 47.4581 117.783 48.104 120.262 48.104V46.104ZM115.442 44.5825C114.289 43.5016 113.71 42.1494 113.71 40.448H111.71C111.71 42.6719 112.496 44.5624 114.074 46.0415L115.442 44.5825ZM113.71 40.448C113.71 38.865 114.028 37.7142 114.566 36.9067L112.902 35.7973C112.075 37.0378 111.71 38.6177 111.71 40.448H113.71ZM114.556 36.9212C115.236 35.9386 115.887 35.5224 116.473 35.4159L116.115 33.4481C114.823 33.683 113.768 34.5467 112.912 35.7828L114.556 36.9212ZM117.294 34.432V34.176H115.294V34.432H117.294ZM116.537 33.2059C116.089 33.0939 115.574 33.048 115.014 33.048V35.048C115.478 35.048 115.816 35.0874 116.051 35.1461L116.537 33.2059ZM115.178 33.0616C114.593 32.964 113.894 32.92 113.094 32.92V34.92C113.83 34.92 114.411 34.9613 114.85 35.0344L115.178 33.0616ZM113.094 32.92C111.121 32.92 109.171 33.4383 107.254 34.4422L108.182 36.2138C109.85 35.3404 111.483 34.92 113.094 34.92V32.92ZM107.288 34.4251C105.39 35.3291 103.675 36.5484 102.147 38.0769L103.561 39.4911C104.934 38.1183 106.462 37.0336 108.148 36.2309L107.288 34.4251ZM102.147 38.0769C100.707 39.5171 99.4955 41.1787 98.5122 43.056L100.284 43.984C101.178 42.2773 102.271 40.7816 103.561 39.4911L102.147 38.0769ZM98.4951 43.0901C97.5848 45.0018 97.118 46.9399 97.118 48.896H99.118C99.118 47.2681 99.5045 45.6222 100.301 43.9499L98.4951 43.0901ZM97.118 48.896V90.112H99.118V48.896H97.118ZM98.118 91.112H110.15V89.112H98.118V91.112ZM109.15 90.112V96H111.15V90.112H109.15ZM110.15 95H78.15V97H110.15V95ZM79.15 96V90.112H77.15V96H79.15ZM172.788 89.728L173.194 90.6418L173.202 90.6385L173.209 90.635L172.788 89.728ZM178.548 85.248L177.76 84.6317L177.757 84.6366L178.548 85.248ZM181.876 78.464L180.916 78.1852L180.913 78.1957L180.91 78.2063L181.876 78.464ZM181.876 47.616L180.908 47.8659L180.913 47.8847L180.918 47.9033L181.876 47.616ZM178.548 40.832L177.744 41.4264L177.758 41.4462L177.774 41.4652L178.548 40.832ZM172.788 36.352L172.354 37.253L172.374 37.2625L172.394 37.2711L172.788 36.352ZM156.276 36.352L156.682 37.2658L156.696 37.2596L156.71 37.253L156.276 36.352ZM150.516 40.832L149.728 40.2157L149.725 40.2206L150.516 40.832ZM147.188 47.616L146.228 47.3372L146.225 47.3477L146.222 47.3583L147.188 47.616ZM147.188 78.464L146.22 78.7139L146.225 78.7327L146.23 78.7513L147.188 78.464ZM150.516 85.248L149.712 85.8424L149.726 85.8622L149.742 85.8812L150.516 85.248ZM156.276 89.728L155.842 90.629L155.856 90.6356L155.87 90.6418L156.276 89.728ZM152.18 95.104L151.784 96.0221L152.18 95.104ZM142.58 88.192L141.822 88.8446L141.831 88.855L142.58 88.192ZM136.436 77.312L135.489 77.6339L135.491 77.6398L136.436 77.312ZM142.58 37.888L143.329 38.5511L143.338 38.5405L142.58 37.888ZM152.18 30.848L151.784 29.9299L152.18 30.848ZM177.012 30.848L176.616 31.7661L177.012 30.848ZM186.612 37.888L185.854 38.5406L185.863 38.551L186.612 37.888ZM192.756 77.312L193.701 77.6398L193.703 77.6339L192.756 77.312ZM186.612 88.192L187.361 88.8551L187.37 88.8445L186.612 88.192ZM164.596 92.264C167.859 92.264 170.734 91.7351 173.194 90.6418L172.382 88.8142C170.234 89.7689 167.648 90.264 164.596 90.264V92.264ZM173.209 90.635C175.727 89.4658 177.78 87.877 179.339 85.8594L177.757 84.6366C176.414 86.3737 174.627 87.7716 172.367 88.821L173.209 90.635ZM179.336 85.8643C180.96 83.7888 182.127 81.4037 182.842 78.7217L180.91 78.2063C180.26 80.6443 179.208 82.7819 177.76 84.6317L179.336 85.8643ZM182.836 78.7428C183.633 75.9971 184.028 73.0436 184.028 69.888H182.028C182.028 72.8764 181.655 75.6402 180.916 78.1852L182.836 78.7428ZM184.028 69.888V56.064H182.028V69.888H184.028ZM184.028 56.064C184.028 52.9089 183.634 49.9946 182.834 47.3287L180.918 47.9033C181.654 50.3574 182.028 53.0751 182.028 56.064H184.028ZM182.844 47.3661C182.13 44.5982 180.961 42.2017 179.322 40.1988L177.774 41.4652C179.207 43.217 180.257 45.3431 180.908 47.8659L182.844 47.3661ZM179.352 40.2376C177.789 38.1228 175.723 36.522 173.182 35.4329L172.394 37.2711C174.631 38.2299 176.406 39.6158 177.744 41.4264L179.352 40.2376ZM173.222 35.451C170.755 34.263 167.869 33.688 164.596 33.688V35.688C167.638 35.688 170.214 36.2223 172.354 37.253L173.222 35.451ZM164.596 33.688C161.242 33.688 158.313 34.2615 155.842 35.451L156.71 37.253C158.847 36.2239 161.464 35.688 164.596 35.688V33.688ZM155.87 35.4382C153.418 36.5278 151.367 38.1226 149.729 40.2157L151.304 41.4483C152.737 39.6161 154.526 38.2242 156.682 37.2658L155.87 35.4382ZM149.725 40.2206C148.186 42.2118 147.025 44.5905 146.228 47.3372L148.148 47.8948C148.887 45.3509 149.945 43.2069 151.307 41.4434L149.725 40.2206ZM146.222 47.3583C145.513 50.0145 145.164 52.9185 145.164 56.064H147.164C147.164 53.0655 147.497 50.3375 148.154 47.8737L146.222 47.3583ZM145.164 56.064V69.888H147.164V56.064H145.164ZM145.164 69.888C145.164 73.034 145.514 75.9775 146.22 78.7139L148.156 78.2141C147.497 75.6598 147.164 72.886 147.164 69.888H145.164ZM146.23 78.7513C147.028 81.4113 148.186 83.7786 149.712 85.8424L151.32 84.6536C149.944 82.7921 148.884 80.6367 148.146 78.1767L146.23 78.7513ZM149.742 85.8812C151.376 87.8777 153.414 89.4598 155.842 90.629L156.71 88.827C154.53 87.7775 152.729 86.373 151.29 84.6148L149.742 85.8812ZM155.87 90.6418C158.333 91.7364 161.252 92.264 164.596 92.264V90.264C161.455 90.264 158.827 89.7676 156.682 88.8142L155.87 90.6418ZM164.596 96.536C160.195 96.536 156.193 95.7478 152.576 94.1859L151.784 96.0221C155.676 97.7029 159.951 98.536 164.596 98.536V96.536ZM152.576 94.1859C148.953 92.6213 145.874 90.403 143.329 87.529L141.831 88.855C144.576 91.9543 147.898 94.3441 151.784 96.0221L152.576 94.1859ZM143.338 87.5395C140.782 84.5714 138.794 81.0575 137.381 76.9842L135.491 77.6398C136.979 81.9292 139.087 85.6686 141.822 88.8445L143.338 87.5395ZM137.383 76.9901C135.973 72.8433 135.26 68.1758 135.26 62.976H133.26C133.26 68.3576 133.998 73.2473 135.489 77.6339L137.383 76.9901ZM135.26 62.976C135.26 57.8635 135.972 53.2382 137.383 49.0899L135.489 48.4461C133.998 52.8311 133.26 57.6778 133.26 62.976H135.26ZM137.383 49.0899C138.796 44.9327 140.782 41.4262 143.329 38.551L141.831 37.225C139.087 40.3231 136.977 44.0699 135.489 48.4461L137.383 49.0899ZM143.338 38.5405C145.883 35.5843 148.959 33.3279 152.576 31.7661L151.784 29.9299C147.891 31.6107 144.567 34.0477 141.822 37.2355L143.338 38.5405ZM152.576 31.7661C156.193 30.2042 160.195 29.416 164.596 29.416V27.416C159.951 27.416 155.676 28.2491 151.784 29.9299L152.576 31.7661ZM164.596 29.416C168.997 29.416 172.999 30.2042 176.616 31.7661L177.408 29.9299C173.516 28.2491 169.241 27.416 164.596 27.416V29.416ZM176.616 31.7661C180.233 33.3279 183.309 35.5843 185.854 38.5405L187.37 37.2355C184.625 34.0477 181.301 31.6107 177.408 29.9299L176.616 31.7661ZM185.863 38.551C188.41 41.4262 190.396 44.9327 191.809 49.0899L193.703 48.4461C192.215 44.0699 190.105 40.3231 187.361 37.225L185.863 38.551ZM191.809 49.0899C193.22 53.2382 193.932 57.8635 193.932 62.976H195.932C195.932 57.6778 195.194 52.8311 193.703 48.4461L191.809 49.0899ZM193.932 62.976C193.932 68.1758 193.219 72.8433 191.809 76.9901L193.703 77.6339C195.194 73.2473 195.932 68.3576 195.932 62.976H193.932ZM191.811 76.9842C190.398 81.0575 188.41 84.5714 185.854 87.5395L187.37 88.8445C190.105 85.6686 192.213 81.9292 193.701 77.6398L191.811 76.9842ZM185.863 87.529C183.318 90.403 180.239 92.6213 176.616 94.1859L177.408 96.0221C181.294 94.3441 184.616 91.9543 187.361 88.855L185.863 87.529ZM176.616 94.1859C172.999 95.7478 168.997 96.536 164.596 96.536V98.536C169.241 98.536 173.516 97.7029 177.408 96.0221L176.616 94.1859ZM198.702 120.32L199.378 119.583L198.702 120.32ZM197.294 108.416L198.05 109.071L197.294 108.416ZM206.126 108.16L205.363 108.806L205.377 108.822L205.391 108.838L206.126 108.16ZM206.766 115.712L205.922 115.175L205.895 115.219L205.872 115.265L206.766 115.712ZM204.846 117.632L204.53 116.683L203.846 116.911V117.632H204.846ZM204.846 118.016H203.846V118.666L204.44 118.93L204.846 118.016ZM216.11 38.272H217.11V37.4324L216.283 37.2871L216.11 38.272ZM206.638 36.608H205.638V37.4476L206.465 37.5929L206.638 36.608ZM206.638 32.256L206.449 31.274L205.638 31.43V32.256H206.638ZM226.606 28.416H227.606V27.2054L226.417 27.434L226.606 28.416ZM221.742 118.016L221.026 117.318L221.017 117.327L221.742 118.016ZM216.238 12.8L215.462 13.4306L215.484 13.4572L215.507 13.4823L216.238 12.8ZM216.238 2.56L215.485 1.90149L215.482 1.90507L216.238 2.56ZM226.478 2.56L225.725 3.2185L225.736 3.23058L225.747 3.24232L226.478 2.56ZM226.478 12.8L227.209 13.4823L227.22 13.4706L227.231 13.4585L226.478 12.8ZM208.174 122.136C204.028 122.136 201.164 121.22 199.378 119.583L198.026 121.057C200.336 123.174 203.787 124.136 208.174 124.136V122.136ZM199.378 119.583C197.546 117.904 196.63 115.787 196.63 113.152H194.63C194.63 116.32 195.762 118.981 198.026 121.057L199.378 119.583ZM196.63 113.152C196.63 111.487 197.115 110.149 198.05 109.071L196.538 107.761C195.254 109.243 194.63 111.062 194.63 113.152H196.63ZM198.05 109.071C198.938 108.046 200.178 107.496 201.902 107.496V105.496C199.7 105.496 197.869 106.226 196.538 107.761L198.05 109.071ZM201.902 107.496C203.577 107.496 204.666 107.983 205.363 108.806L206.889 107.514C205.708 106.118 203.981 105.496 201.902 105.496V107.496ZM205.391 108.838C206.214 109.729 206.662 110.922 206.662 112.512H208.662C208.662 110.518 208.086 108.809 206.861 107.482L205.391 108.838ZM206.662 112.512C206.662 113.531 206.41 114.409 205.922 115.175L207.61 116.249C208.317 115.138 208.662 113.882 208.662 112.512H206.662ZM205.872 115.265C205.429 116.151 204.957 116.541 204.53 116.683L205.162 118.581C206.271 118.211 207.079 117.321 207.66 116.159L205.872 115.265ZM203.846 117.632V118.016H205.846V117.632H203.846ZM204.44 118.93C205.397 119.355 206.671 119.528 208.174 119.528V117.528C206.776 117.528 205.831 117.36 205.252 117.102L204.44 118.93ZM208.174 119.528C211.051 119.528 213.362 118.587 214.916 116.581C216.434 114.623 217.11 111.803 217.11 108.288H215.11C215.11 111.6 214.464 113.9 213.336 115.355C212.245 116.762 210.587 117.528 208.174 117.528V119.528ZM217.11 108.288V38.272H215.11V108.288H217.11ZM216.283 37.2871L206.811 35.6231L206.465 37.5929L215.937 39.2569L216.283 37.2871ZM207.638 36.608V32.256H205.638V36.608H207.638ZM206.827 33.238L226.795 29.398L226.417 27.434L206.449 31.274L206.827 33.238ZM225.606 28.416V102.656H227.606V28.416H225.606ZM225.606 102.656C225.606 109.433 224.014 114.251 221.026 117.318L222.458 118.714C225.955 115.125 227.606 109.703 227.606 102.656H225.606ZM221.017 117.327C218.005 120.497 213.771 122.136 208.174 122.136V124.136C214.183 124.136 218.993 122.361 222.467 118.705L221.017 117.327ZM221.358 13.72C219.338 13.72 217.927 13.1439 216.969 12.1177L215.507 13.4823C216.938 15.0161 218.941 15.72 221.358 15.72V13.72ZM217.014 12.1694C216.06 10.9948 215.574 9.60025 215.574 7.936H213.574C213.574 10.0264 214.198 11.8745 215.462 13.4306L217.014 12.1694ZM215.574 7.936V7.296H213.574V7.936H215.574ZM215.574 7.296C215.574 5.63128 216.059 4.29303 216.994 3.21493L215.482 1.90507C214.198 3.38696 213.574 5.20605 213.574 7.296H215.574ZM216.991 3.2185C217.954 2.11776 219.358 1.51199 221.358 1.51199V-0.488007C218.921 -0.488007 216.912 0.271561 215.485 1.90149L216.991 3.2185ZM221.358 1.51199C223.358 1.51199 224.762 2.11776 225.725 3.2185L227.231 1.90149C225.804 0.271561 223.795 -0.488007 221.358 -0.488007V1.51199ZM225.747 3.24232C226.756 4.32301 227.27 5.65193 227.27 7.296H229.27C229.27 5.1854 228.59 3.35699 227.209 1.87768L225.747 3.24232ZM227.27 7.296V7.936H229.27V7.296H227.27ZM227.27 7.936C227.27 9.58034 226.755 10.9653 225.725 12.1415L227.231 13.4585C228.591 11.904 229.27 10.0463 229.27 7.936H227.27ZM225.747 12.1177C224.789 13.1439 223.378 13.72 221.358 13.72V15.72C223.775 15.72 225.778 15.0161 227.209 13.4823L225.747 12.1177ZM262.54 95.104L262.118 96.0107L262.131 96.0166L262.144 96.0221L262.54 95.104ZM253.196 88.064L253.955 87.4132L253.196 88.064ZM247.308 77.184L246.356 77.4888L247.308 77.184ZM247.436 49.024L246.495 48.6853L246.491 48.6962L247.436 49.024ZM253.58 38.016L252.822 37.3635L252.817 37.3696L252.812 37.3758L253.58 38.016ZM262.924 30.976L263.336 31.8871L263.345 31.8831L263.354 31.8789L262.924 30.976ZM286.348 30.72L286.758 29.8081L286.348 30.72ZM294.924 37.248L294.15 37.8812L294.161 37.894L294.171 37.9065L294.924 37.248ZM300.428 47.104L299.479 47.4202L300.428 47.104ZM302.348 62.592V63.592H303.348V62.592H302.348ZM256.908 62.592V61.592H255.908V62.592H256.908ZM262.284 83.072L261.525 83.7228L261.532 83.7316L262.284 83.072ZM289.42 86.144L289.99 86.9654L289.995 86.9622L289.42 86.144ZM296.844 77.568L297.381 76.7243L296.455 76.1348L295.954 77.1121L296.844 77.568ZM301.068 80.256L302.001 80.615L302.295 79.8515L301.605 79.4123L301.068 80.256ZM297.484 86.784L296.672 86.1997L296.668 86.206L297.484 86.784ZM292.108 92.288L292.692 93.0995L292.703 93.092L292.713 93.0842L292.108 92.288ZM284.684 96L284.368 95.0513L284.355 95.0556L284.342 95.0602L284.684 96ZM256.908 56.704H255.908V57.704H256.908V56.704ZM291.34 56.704V57.704H292.34V56.704H291.34ZM290.316 47.104L289.342 47.3312L289.346 47.3465L289.35 47.3617L290.316 47.104ZM287.372 40.448L286.563 41.0362L287.372 40.448ZM282.124 36.096L281.648 36.9753L281.669 36.9869L281.691 36.9975L282.124 36.096ZM267.02 35.968L267.439 36.876L267.02 35.968ZM261.388 40.32L260.614 39.6868L260.605 39.6975L260.597 39.7085L261.388 40.32ZM258.06 46.976L259.015 47.2724L259.018 47.2633L258.06 46.976ZM275.212 96.536C270.635 96.536 266.549 95.7458 262.936 94.1859L262.144 96.0221C266.041 97.7048 270.402 98.536 275.212 98.536V96.536ZM262.962 94.1973C259.418 92.5491 256.42 90.2883 253.955 87.4132L252.437 88.7148C255.092 91.813 258.323 94.2456 262.118 96.0107L262.962 94.1973ZM253.955 87.4132C251.493 84.5409 249.591 81.0364 248.26 76.8792L246.356 77.4888C247.756 81.865 249.779 85.6137 252.437 88.7148L253.955 87.4132ZM248.26 76.8792C246.931 72.7255 246.26 68.0943 246.26 62.976H244.26C244.26 68.2684 244.954 73.1091 246.356 77.4888L248.26 76.8792ZM246.26 62.976C246.26 57.9504 246.972 53.4126 248.381 49.3518L246.491 48.6962C244.999 52.9981 244.26 57.7616 244.26 62.976H246.26ZM248.377 49.3627C249.879 45.1913 251.872 41.6274 254.348 38.6562L252.812 37.3758C250.168 40.5486 248.065 44.3234 246.495 48.6853L248.377 49.3627ZM254.338 38.6685C256.891 35.7034 259.889 33.4466 263.336 31.8871L262.512 30.0649C258.791 31.7481 255.56 34.1846 252.822 37.3635L254.338 38.6685ZM263.354 31.8789C266.794 30.2409 270.571 29.416 274.7 29.416V27.416C270.296 27.416 266.222 28.2978 262.494 30.0731L263.354 31.8789ZM274.7 29.416C278.933 29.416 282.673 30.1627 285.938 31.6319L286.758 29.8081C283.197 28.2053 279.171 27.416 274.7 27.416V29.416ZM285.938 31.6319C289.214 33.1063 291.947 35.1885 294.15 37.8812L295.698 36.6148C293.293 33.6755 290.309 31.4057 286.758 29.8081L285.938 31.6319ZM294.171 37.9065C296.464 40.5263 298.236 43.6916 299.479 47.4202L301.377 46.7878C300.06 42.8364 298.163 39.431 295.677 36.5895L294.171 37.9065ZM299.479 47.4202C300.722 51.1471 301.348 55.2203 301.348 59.648H303.348C303.348 55.0303 302.694 50.7409 301.377 46.7878L299.479 47.4202ZM301.348 59.648V62.592H303.348V59.648H301.348ZM302.348 61.592H256.908V63.592H302.348V61.592ZM255.908 62.592V65.92H257.908V62.592H255.908ZM255.908 65.92C255.908 73.3353 257.742 79.3094 261.525 83.7228L263.043 82.4212C259.658 78.472 257.908 73.0114 257.908 65.92H255.908ZM261.532 83.7316C265.41 88.1501 270.558 90.344 276.876 90.344V88.344C271.076 88.344 266.497 86.3566 263.036 82.4124L261.532 83.7316ZM276.876 90.344C282.289 90.344 286.695 89.2541 289.99 86.9654L288.85 85.3226C286.001 87.3005 282.044 88.344 276.876 88.344V90.344ZM289.995 86.9622C293.288 84.6483 295.869 81.6643 297.734 78.0239L295.954 77.1121C294.235 80.469 291.867 83.2023 288.845 85.3258L289.995 86.9622ZM296.307 78.4117L300.531 81.0997L301.605 79.4123L297.381 76.7243L296.307 78.4117ZM300.135 79.897C299.315 82.0277 298.164 84.1287 296.672 86.1997L298.296 87.3683C299.876 85.1727 301.114 82.9216 302.001 80.615L300.135 79.897ZM296.668 86.206C295.28 88.1655 293.561 89.9279 291.503 91.4918L292.713 93.0842C294.922 91.4054 296.787 89.4985 298.3 87.362L296.668 86.206ZM291.524 91.4765C289.482 92.9464 287.1 94.1405 284.368 95.0513L285 96.9487C287.9 95.9821 290.467 94.7016 292.692 93.0995L291.524 91.4765ZM284.342 95.0602C281.652 96.0383 278.613 96.536 275.212 96.536V98.536C278.808 98.536 282.084 98.0097 285.026 96.9398L284.342 95.0602ZM256.908 57.704H291.34V55.704H256.908V57.704ZM292.34 56.704V55.424H290.34V56.704H292.34ZM292.34 55.424C292.34 52.3612 291.99 49.5003 291.282 46.8463L289.35 47.3617C290.007 49.8277 290.34 52.5135 290.34 55.424H292.34ZM291.29 46.8768C290.666 44.2038 289.634 41.8586 288.181 39.8598L286.563 41.0362C287.84 42.792 288.771 44.8842 289.342 47.3312L291.29 46.8768ZM288.181 39.8598C286.716 37.8458 284.836 36.2887 282.557 35.1945L281.691 36.9975C283.678 37.9513 285.297 39.2955 286.563 41.0362L288.181 39.8598ZM282.6 35.2167C280.374 34.011 277.727 33.432 274.7 33.432V35.432C277.475 35.432 279.778 35.9623 281.648 36.9753L282.6 35.2167ZM274.7 33.432C271.681 33.432 268.973 33.9651 266.601 35.06L267.439 36.876C269.504 35.9229 271.917 35.432 274.7 35.432V33.432ZM266.601 35.06C264.246 36.147 262.247 37.6912 260.614 39.6868L262.162 40.9532C263.601 39.1941 265.357 37.8369 267.439 36.876L266.601 35.06ZM260.597 39.7085C259.062 41.6943 257.901 44.0261 257.102 46.6887L259.018 47.2633C259.755 44.8059 260.812 42.7004 262.179 40.9314L260.597 39.7085ZM257.105 46.6796C256.303 49.2636 255.908 52.0958 255.908 55.168H257.908C257.908 52.2668 258.281 49.6377 259.015 47.2724L257.105 46.6796ZM255.908 55.168V56.704H257.908V55.168H255.908ZM331.165 95.104L330.743 96.0107L330.756 96.0166L330.769 96.0221L331.165 95.104ZM321.821 88.064L321.053 88.7042L321.062 88.7148L321.821 88.064ZM315.933 77.184L314.981 77.4888L314.982 77.4944L315.933 77.184ZM316.061 48.64L315.12 48.3013L315.117 48.3097L315.114 48.3181L316.061 48.64ZM322.461 37.76L321.723 37.0852L322.461 37.76ZM332.189 30.848L331.8 29.9267L331.793 29.9299L332.189 30.848ZM361.245 32.896L360.648 33.698L360.657 33.7051L360.667 33.712L361.245 32.896ZM365.213 50.432L364.486 49.7454L364.476 49.7563L364.466 49.7676L365.213 50.432ZM353.565 50.432L354.333 49.7918L353.565 50.432ZM353.053 40.064L353.877 40.6305L353.053 40.064ZM357.021 36.864L357.431 37.7759L358.021 37.5106V36.864H357.021ZM357.021 36.48H358.021V35.9212L357.545 35.6283L357.021 36.48ZM352.669 34.944L352.473 35.9246L352.482 35.9263L352.669 34.944ZM337.693 36.096L337.295 35.1784L337.284 35.1835L337.693 36.096ZM331.293 40.832L332.031 41.5063L332.039 41.4985L332.046 41.4905L331.293 40.832ZM327.069 47.872L328.002 48.233L328.005 48.2231L327.069 47.872ZM326.941 75.648L325.99 75.9558L325.992 75.9642L326.941 75.648ZM330.909 82.944L330.141 83.5842L330.148 83.5934L330.156 83.6025L330.909 82.944ZM337.181 87.68L336.76 88.5871L336.772 88.5925L337.181 87.68ZM357.789 86.144L358.37 86.9577L358.378 86.9523L358.385 86.9467L357.789 86.144ZM364.957 77.568L365.506 76.7319L364.575 76.121L364.067 77.1121L364.957 77.568ZM369.053 80.256L369.998 80.5831L370.253 79.8472L369.602 79.42L369.053 80.256ZM365.725 86.784L366.541 87.362L366.547 87.3542L366.552 87.3463L365.725 86.784ZM360.477 92.288L361.077 93.088L361.087 93.0802L361.098 93.0721L360.477 92.288ZM353.181 96L352.865 95.0513L352.847 95.0572L352.83 95.0637L353.181 96ZM343.965 96.536C339.3 96.536 335.172 95.7449 331.561 94.1859L330.769 96.0221C334.668 97.7058 339.073 98.536 343.965 98.536V96.536ZM331.587 94.1973C328.043 92.5491 325.045 90.2883 322.58 87.4132L321.062 88.7148C323.717 91.813 326.948 94.2456 330.743 96.0107L331.587 94.1973ZM322.589 87.4238C320.118 84.4585 318.214 80.9465 316.884 76.8736L314.982 77.4944C316.383 81.7842 318.404 85.5255 321.053 88.7042L322.589 87.4238ZM316.885 76.8792C315.556 72.7255 314.885 68.0943 314.885 62.976H312.885C312.885 68.2684 313.579 73.1091 314.981 77.4888L316.885 76.8792ZM314.885 62.976C314.885 57.7762 315.598 53.1087 317.008 48.9619L315.114 48.3181C313.623 52.7047 312.885 57.5944 312.885 62.976H314.885ZM317.002 48.9787C318.499 44.8214 320.568 41.3128 323.199 38.4348L321.723 37.0852C318.893 40.1805 316.695 43.9253 315.12 48.3013L317.002 48.9787ZM323.199 38.4348C325.833 35.5536 328.959 33.332 332.585 31.7661L331.793 29.9299C327.91 31.6067 324.55 33.9931 321.723 37.0852L323.199 38.4348ZM332.578 31.7692C336.282 30.2051 340.372 29.416 344.861 29.416V27.416C340.134 27.416 335.776 28.2482 331.8 29.9268L332.578 31.7692ZM344.861 29.416C351.638 29.416 356.865 30.8809 360.648 33.698L361.842 32.094C357.604 28.9378 351.908 27.416 344.861 27.416V29.416ZM360.667 33.712C364.532 36.4498 366.389 39.873 366.389 44.032H368.389C368.389 39.1456 366.15 35.1448 361.823 32.08L360.667 33.712ZM366.389 44.032C366.389 46.5846 365.715 48.4445 364.486 49.7454L365.94 51.1186C367.613 49.3475 368.389 46.9407 368.389 44.032H366.389ZM364.466 49.7676C363.329 51.0468 361.706 51.736 359.453 51.736V53.736C362.15 53.736 364.367 52.8891 365.96 51.0964L364.466 49.7676ZM359.453 51.736C357.002 51.736 355.366 51.0314 354.333 49.7918L352.797 51.0722C354.324 52.9046 356.613 53.736 359.453 53.736V51.736ZM354.333 49.7918C353.213 48.4481 352.645 46.8443 352.645 44.928H350.645C350.645 47.2784 351.357 49.3439 352.797 51.0722L354.333 49.7918ZM352.645 44.928C352.645 43.2251 353.068 41.8076 353.877 40.6305L352.229 39.4975C351.161 41.0511 350.645 42.8763 350.645 44.928H352.645ZM353.877 40.6305C354.699 39.4348 355.869 38.4788 357.431 37.7759L356.611 35.9521C354.759 36.7852 353.284 37.9625 352.229 39.4975L353.877 40.6305ZM358.021 36.864V36.48H356.021V36.864H358.021ZM357.545 35.6283C356.3 34.8621 354.723 34.3173 352.856 33.9617L352.482 35.9263C354.199 36.2534 355.523 36.7326 356.497 37.3317L357.545 35.6283ZM352.865 33.9634C351.068 33.604 348.777 33.432 346.013 33.432V35.432C348.71 35.432 350.856 35.6013 352.473 35.9246L352.865 33.9634ZM346.013 33.432C342.899 33.432 339.99 34.011 337.295 35.1784L338.091 37.0135C340.516 35.9624 343.153 35.432 346.013 35.432V33.432ZM337.284 35.1835C334.677 36.352 332.427 38.0175 330.54 40.1735L332.046 41.4905C333.743 39.5505 335.759 38.0587 338.102 37.0085L337.284 35.1835ZM330.555 40.1577C328.669 42.2233 327.197 44.6825 326.133 47.5209L328.005 48.2231C328.989 45.6001 330.333 43.366 332.031 41.5063L330.555 40.1577ZM326.136 47.511C325.063 50.2838 324.533 53.3091 324.533 56.576H326.533C326.533 53.5282 327.027 50.7509 328.002 48.233L326.136 47.511ZM324.533 56.576V66.048H326.533V56.576H324.533ZM324.533 66.048C324.533 69.6361 325.014 72.9416 325.99 75.9558L327.892 75.3402C326.99 72.5517 326.533 69.4573 326.533 66.048H324.533ZM325.992 75.9642C326.966 78.8851 328.346 81.4301 330.141 83.5842L331.677 82.3038C330.059 80.3619 328.793 78.0429 327.89 75.3318L325.992 75.9642ZM330.156 83.6025C332.037 85.752 334.24 87.4169 336.76 88.587L337.602 86.773C335.344 85.7244 333.365 84.232 331.662 82.2855L330.156 83.6025ZM336.772 88.5925C339.391 89.7667 342.307 90.344 345.501 90.344V88.344C342.551 88.344 339.92 87.812 337.59 86.7675L336.772 88.5925ZM345.501 90.344C350.831 90.344 355.156 89.2533 358.37 86.9577L357.208 85.3303C354.448 87.3013 350.582 88.344 345.501 88.344V90.344ZM358.385 86.9467C361.502 84.6314 363.989 81.6513 365.847 78.0239L364.067 77.1121C362.341 80.4821 360.049 83.2193 357.193 85.3413L358.385 86.9467ZM364.408 78.404L368.504 81.092L369.602 79.42L365.506 76.7319L364.408 78.404ZM368.108 79.9289C367.372 82.0565 366.304 84.1541 364.898 86.2217L366.552 87.3463C368.047 85.1472 369.198 82.8928 369.998 80.5831L368.108 79.9289ZM364.909 86.206C363.516 88.1732 361.833 89.9392 359.856 91.504L361.098 93.0721C363.217 91.3941 365.033 89.4908 366.541 87.362L364.909 86.206ZM359.877 91.488C357.927 92.9502 355.595 94.1413 352.865 95.0513L353.497 96.9487C356.399 95.9813 358.931 94.6978 361.077 93.088L359.877 91.488ZM352.83 95.0637C350.229 96.0391 347.278 96.536 343.965 96.536V98.536C347.478 98.536 350.672 98.0089 353.532 96.9363L352.83 95.0637ZM390.637 94.08L389.897 94.7527L389.905 94.7613L389.913 94.7697L390.637 94.08ZM388.077 36.224H389.077V35.224H388.077V36.224ZM379.629 36.224H378.629V37.224H379.629V36.224ZM379.629 29.952V28.952H378.629V29.952H379.629ZM385.005 29.568L384.78 28.5936L384.771 28.5956L384.762 28.5979L385.005 29.568ZM387.565 28.544L388.146 29.3577L388.156 29.351L388.165 29.344L387.565 28.544ZM388.973 26.752L388.059 26.3459L388.047 26.373L388.037 26.4009L388.973 26.752ZM389.869 24.192L390.834 24.4551L390.837 24.4422L389.869 24.192ZM392.813 12.8V11.8H392.039L391.845 12.5498L392.813 12.8ZM398.573 12.8H399.573V11.8H398.573V12.8ZM398.573 29.952H397.573V30.952H398.573V29.952ZM415.597 29.952H416.597V28.952H415.597V29.952ZM415.597 36.224V37.224H416.597V36.224H415.597ZM398.573 36.224V35.224H397.573V36.224H398.573ZM398.573 89.728H397.573V90.728H398.573V89.728ZM415.597 89.728H416.597V88.728H415.597V89.728ZM415.597 93.952L416.083 94.8262L416.597 94.5404V93.952H415.597ZM412.653 95.104L412.378 94.1425L412.369 94.1452L412.359 94.1482L412.653 95.104ZM408.813 96L408.639 95.0152L408.629 95.0171L408.813 96ZM404.461 96.512L404.406 95.5135L404.378 95.5151L404.351 95.5181L404.461 96.512ZM399.981 95.768C395.525 95.768 392.773 94.8725 391.361 93.3904L389.913 94.7697C391.915 96.8715 395.392 97.768 399.981 97.768V95.768ZM391.377 93.4073C389.925 91.8098 389.077 88.9667 389.077 84.608H387.077C387.077 89.124 387.936 92.5955 389.897 94.7527L391.377 93.4073ZM389.077 84.608V36.224H387.077V84.608H389.077ZM388.077 35.224H379.629V37.224H388.077V35.224ZM380.629 36.224V29.952H378.629V36.224H380.629ZM379.629 30.952H380.781V28.952H379.629V30.952ZM380.781 30.952C382.606 30.952 384.108 30.823 385.248 30.5381L384.762 28.5979C383.854 28.825 382.54 28.952 380.781 28.952V30.952ZM385.23 30.5424C386.404 30.2714 387.399 29.8912 388.146 29.3577L386.984 27.7303C386.536 28.0501 385.824 28.3526 384.78 28.5936L385.23 30.5424ZM388.165 29.344C388.974 28.7374 389.576 27.9931 389.909 27.1031L388.037 26.4009C387.858 26.8762 387.522 27.3266 386.965 27.744L388.165 29.344ZM389.887 27.1581C390.252 26.3373 390.566 25.4352 390.834 24.4551L388.904 23.9289C388.66 24.8261 388.377 25.6307 388.059 26.3459L389.887 27.1581ZM390.837 24.4422L393.781 13.0502L391.845 12.5498L388.901 23.9418L390.837 24.4422ZM392.813 13.8H398.573V11.8H392.813V13.8ZM397.573 12.8V29.952H399.573V12.8H397.573ZM398.573 30.952H415.597V28.952H398.573V30.952ZM414.597 29.952V36.224H416.597V29.952H414.597ZM415.597 35.224H398.573V37.224H415.597V35.224ZM397.573 36.224V89.728H399.573V36.224H397.573ZM398.573 90.728H415.597V88.728H398.573V90.728ZM414.597 89.728V93.952H416.597V89.728H414.597ZM415.111 93.0779C414.431 93.4557 413.527 93.8142 412.378 94.1425L412.928 96.0655C414.168 95.7111 415.227 95.3017 416.083 94.8262L415.111 93.0779ZM412.359 94.1482C411.298 94.4747 410.059 94.7646 408.639 95.0152L408.987 96.9848C410.468 96.7234 411.789 96.416 412.947 96.0598L412.359 94.1482ZM408.629 95.0171C407.31 95.2644 405.903 95.4304 404.406 95.5135L404.516 97.5105C406.091 97.423 407.585 97.2477 408.997 96.9829L408.629 95.0171ZM404.351 95.5181C402.849 95.685 401.392 95.768 399.981 95.768V97.768C401.471 97.768 403.001 97.6804 404.571 97.5059L404.351 95.5181ZM441.01 95.104L440.514 95.9722L440.523 95.9776L440.533 95.9828L441.01 95.104ZM435.122 89.472L436.031 89.0553L435.764 88.472H435.122V89.472ZM434.61 89.472V88.472H433.61V89.472H434.61ZM434.61 96V97H435.61V96H434.61ZM426.93 96H425.93V97H426.93V96ZM426.93 76.16V75.16H425.93V76.16H426.93ZM434.61 76.16H435.61V75.16H434.61V76.16ZM438.066 87.808L437.359 88.5151L438.066 87.808ZM460.722 88.704L461.264 89.5443L461.271 89.54L460.722 88.704ZM453.938 68.864L454.156 67.8881L454.15 67.8867L453.938 68.864ZM446.258 67.2L446.47 66.2227L446.469 66.2226L446.258 67.2ZM431.922 60.288L431.205 60.9857L431.215 60.9951L431.922 60.288ZM433.202 33.408L433.831 34.1857L433.841 34.1776L433.202 33.408ZM459.314 30.336L458.867 31.2305L458.878 31.2362L459.314 30.336ZM464.562 35.328L463.639 35.7126L463.895 36.328H464.562V35.328ZM465.074 35.328V36.328H466.074V35.328H465.074ZM465.074 29.952V28.952H464.074V29.952H465.074ZM472.754 29.952H473.754V28.952H472.754V29.952ZM472.754 49.792V50.792H473.754V49.792H472.754ZM465.074 49.792H464.074V50.792H465.074V49.792ZM440.498 37.248L441.06 38.0755L441.066 38.0712L440.498 37.248ZM439.858 52.608L439.136 53.2999L439.143 53.3076L439.151 53.3151L439.858 52.608ZM447.922 56.704L447.702 57.6797L447.712 57.6818L447.922 56.704ZM455.09 58.24L454.88 59.2178L454.887 59.2191L455.09 58.24ZM469.81 65.024L469.112 65.7405L469.122 65.7495L469.81 65.024ZM473.138 85.888L472.231 85.4669L472.228 85.4743L472.224 85.4819L473.138 85.888ZM468.53 92.032L469.186 92.7866L469.189 92.7846L468.53 92.032ZM461.234 96L460.926 95.0486L460.909 95.0541L460.892 95.0602L461.234 96ZM451.506 96.536C447.632 96.536 444.303 95.7538 441.487 94.2251L440.533 95.9828C443.69 97.6969 447.359 98.536 451.506 98.536V96.536ZM441.506 94.2358C438.611 92.5815 436.848 90.8371 436.031 89.0553L434.213 89.8887C435.274 92.2029 437.436 94.2132 440.514 95.9722L441.506 94.2358ZM435.122 88.472H434.61V90.472H435.122V88.472ZM433.61 89.472V96H435.61V89.472H433.61ZM434.61 95H426.93V97H434.61V95ZM427.93 96V76.16H425.93V96H427.93ZM426.93 77.16H434.61V75.16H426.93V77.16ZM433.61 76.16V78.848H435.61V76.16H433.61ZM433.61 78.848C433.61 82.746 434.843 85.9992 437.359 88.5151L438.773 87.1009C436.681 85.0088 435.61 82.2886 435.61 78.848H433.61ZM437.359 88.5151C439.939 91.0948 444.06 92.264 449.458 92.264V90.264C444.274 90.264 440.801 89.1292 438.773 87.1009L437.359 88.5151ZM449.458 92.264C454.417 92.264 458.392 91.3976 461.264 89.5443L460.18 87.8637C457.762 89.4237 454.227 90.264 449.458 90.264V92.264ZM461.271 89.54C464.336 87.5285 465.818 84.3643 465.818 80.256H463.818C463.818 83.8277 462.569 86.2956 460.173 87.868L461.271 89.54ZM465.818 80.256C465.818 77.0503 464.837 74.348 462.821 72.2373C460.826 70.1478 457.899 68.7247 454.156 67.8881L453.72 69.8399C457.231 70.6247 459.744 71.9108 461.375 73.6187C462.986 75.3054 463.818 77.4884 463.818 80.256H465.818ZM454.15 67.8867L446.47 66.2227L446.046 68.1773L453.726 69.8413L454.15 67.8867ZM446.469 66.2226C440.269 64.882 435.691 62.6428 432.629 59.5809L431.215 60.9951C434.638 64.4185 439.618 66.7874 446.047 68.1774L446.469 66.2226ZM432.638 59.5904C429.705 56.5775 428.186 52.4145 428.186 46.976H426.186C426.186 52.8015 427.824 57.5131 431.206 60.9856L432.638 59.5904ZM428.186 46.976C428.186 41.4326 430.086 37.2131 433.831 34.1856L432.573 32.6304C428.296 36.0882 426.186 40.9141 426.186 46.976H428.186ZM433.841 34.1776C437.625 31.0376 442.752 29.416 449.33 29.416V27.416C442.425 27.416 436.801 29.1224 432.563 32.6384L433.841 34.1776ZM449.33 29.416C453.333 29.416 456.492 30.0432 458.867 31.2304L459.761 29.4416C457.016 28.0688 453.519 27.416 449.33 27.416V29.416ZM458.878 31.2362C461.376 32.4448 462.907 33.9551 463.639 35.7126L465.485 34.9434C464.511 32.6049 462.542 30.7872 459.75 29.4358L458.878 31.2362ZM464.562 36.328H465.074V34.328H464.562V36.328ZM466.074 35.328V29.952H464.074V35.328H466.074ZM465.074 30.952H472.754V28.952H465.074V30.952ZM471.754 29.952V49.792H473.754V29.952H471.754ZM472.754 48.792H465.074V50.792H472.754V48.792ZM466.074 49.792V44.928H464.074V49.792H466.074ZM466.074 44.928C466.074 41.2518 464.769 38.3611 462.071 36.4343C459.436 34.5518 455.605 33.688 450.738 33.688V35.688C455.428 35.688 458.766 36.5309 460.909 38.0617C462.99 39.5483 464.074 41.7775 464.074 44.928H466.074ZM450.738 33.688C446.27 33.688 442.631 34.562 439.93 36.4248L441.066 38.0712C443.314 36.5206 446.502 35.688 450.738 35.688V33.688ZM439.936 36.4205C437.206 38.2736 435.914 41.2311 435.914 45.056H437.914C437.914 41.7129 439.012 39.465 441.06 38.0755L439.936 36.4205ZM435.914 45.056C435.914 48.2854 436.985 51.0551 439.136 53.2999L440.58 51.9161C438.806 50.0649 437.914 47.7999 437.914 45.056H435.914ZM439.151 53.3151C441.278 55.4425 444.152 56.8808 447.702 57.6796L448.142 55.7284C444.865 54.9912 442.363 53.6988 440.565 51.9009L439.151 53.3151ZM447.712 57.6818L454.88 59.2178L455.3 57.2622L448.132 55.7262L447.712 57.6818ZM454.887 59.2191C461.355 60.5632 466.057 62.7654 469.112 65.7405L470.508 64.3075C467.078 60.9679 461.966 58.6474 455.293 57.2609L454.887 59.2191ZM469.122 65.7495C472.207 68.6764 473.802 72.7834 473.802 78.208H475.802C475.802 72.3686 474.069 67.6863 470.498 64.2985L469.122 65.7495ZM473.802 78.208C473.802 80.7987 473.277 83.2144 472.231 85.4669L474.045 86.3091C475.218 83.783 475.802 81.0787 475.802 78.208H473.802ZM472.224 85.4819C471.264 87.6429 469.819 89.5753 467.871 91.2794L469.189 92.7846C471.337 90.9047 472.964 88.7411 474.052 86.2941L472.224 85.4819ZM467.874 91.2774C466.029 92.8818 463.721 94.1443 460.926 95.0486L461.542 96.9514C464.55 95.9784 467.106 94.5956 469.186 92.7866L467.874 91.2774ZM460.892 95.0602C458.207 96.0366 455.084 96.536 451.506 96.536V98.536C455.267 98.536 458.629 98.0114 461.576 96.9398L460.892 95.0602ZM493.782 95.36L493.035 96.0244L493.054 96.0463L493.075 96.0671L493.782 95.36ZM493.782 83.712L493.055 83.0254L493.054 83.0266L493.782 83.712ZM505.43 83.712L504.683 84.3764L504.702 84.3983L504.723 84.4191L505.43 83.712ZM505.43 95.36L504.703 94.6734L504.702 94.6746L505.43 95.36ZM494.422 33.664H493.422V33.7035L493.425 33.743L494.422 33.664ZM494.422 6.656V5.656H493.422V6.656H494.422ZM504.918 6.656H505.918V5.656H504.918V6.656ZM504.918 33.664L505.915 33.743L505.918 33.7035V33.664H504.918ZM501.846 72.448V73.448H502.77L502.843 72.527L501.846 72.448ZM497.494 72.448L496.497 72.527L496.57 73.448H497.494V72.448ZM499.67 96.536C497.402 96.536 495.715 95.8784 494.489 94.6529L493.075 96.0671C494.751 97.743 496.989 98.536 499.67 98.536V96.536ZM494.529 94.6956C493.333 93.3502 492.734 91.7546 492.734 89.856H490.734C490.734 92.224 491.5 94.2978 493.035 96.0244L494.529 94.6956ZM492.734 89.856V89.088H490.734V89.856H492.734ZM492.734 89.088C492.734 87.1896 493.333 85.6486 494.51 84.3974L493.054 83.0266C491.501 84.6767 490.734 86.7197 490.734 89.088H492.734ZM494.509 84.3986C495.738 83.0971 497.419 82.408 499.67 82.408V80.408C496.971 80.408 494.727 81.2549 493.055 83.0254L494.509 84.3986ZM499.67 82.408C501.923 82.408 503.546 83.0972 504.683 84.3764L506.177 83.0476C504.584 81.2549 502.367 80.408 499.67 80.408V82.408ZM504.723 84.4191C505.978 85.6741 506.606 87.2081 506.606 89.088H508.606C508.606 86.7012 507.784 84.6513 506.137 83.0049L504.723 84.4191ZM506.606 89.088V89.856H508.606V89.088H506.606ZM506.606 89.856C506.606 91.7368 505.976 93.325 504.703 94.6734L506.157 96.0466C507.785 94.323 508.606 92.2419 508.606 89.856H506.606ZM504.702 94.6746C503.569 95.8779 501.94 96.536 499.67 96.536V98.536C502.349 98.536 504.56 97.7435 506.158 96.0454L504.702 94.6746ZM495.422 33.664V6.656H493.422V33.664H495.422ZM494.422 7.656H504.918V5.656H494.422V7.656ZM503.918 6.656V33.664H505.918V6.656H503.918ZM503.921 33.585L500.849 72.369L502.843 72.527L505.915 33.743L503.921 33.585ZM501.846 71.448H497.494V73.448H501.846V71.448ZM498.491 72.369L495.419 33.585L493.425 33.743L496.497 72.527L498.491 72.369Z" fill="#D9D9D9" fill-opacity="0.15"/>
</svg>
