<svg width="316" height="100" viewBox="0 0 316 100" fill="none" xmlns="http://www.w3.org/2000/svg">
<path d="M17.576 97.104L17.1197 97.9938L17.1332 98.0007L17.1469 98.0073L17.576 97.104ZM10.536 90.32L11.4358 89.8837L11.1625 89.32H10.536V90.32ZM9.896 90.32V89.32H8.896V90.32H9.896ZM9.896 98V99H10.896V98H9.896ZM0.68 98H-0.32V99H0.68V98ZM0.68 71.76V70.76H-0.32V71.76H0.68ZM9.896 71.76H10.896V70.76H9.896V71.76ZM10.792 83.664L9.83908 83.9672L9.84756 83.9939L9.85751 84.02L10.792 83.664ZM13.992 88.4L13.3066 89.1282L13.317 89.138L13.3276 89.1474L13.992 88.4ZM19.88 91.6L19.574 92.5521L19.5836 92.5551L19.88 91.6ZM44.84 88.016L44.1517 87.2905L44.1424 87.2995L44.84 88.016ZM45.992 64.72L45.273 65.415L45.2789 65.4211L45.2849 65.4271L45.992 64.72ZM34.216 58.704L34.4765 57.7385L34.4696 57.7367L34.4627 57.7349L34.216 58.704ZM27.176 56.912L26.9261 57.8803L26.9293 57.8811L27.176 56.912ZM8.744 47.696L8.05864 48.4242L8.744 47.696ZM4.264 21.072L5.16887 21.4978L5.17348 21.4878L4.264 21.072ZM18.856 8.784L18.5537 7.83074L18.5469 7.83296L18.856 8.784ZM42.28 9.424L41.8328 10.3184L41.8475 10.3258L41.8625 10.3327L42.28 9.424ZM48.936 15.568L48.0358 16.0036L48.309 16.568H48.936V15.568ZM49.704 15.568V16.568H50.704V15.568H49.704ZM49.704 8.656V7.656H48.704V8.656H49.704ZM58.92 8.656H59.92V7.656H58.92V8.656ZM58.92 33.616V34.616H59.92V33.616H58.92ZM49.704 33.616H48.704V34.616H49.704V33.616ZM48.68 21.968L47.7361 22.2983L47.7434 22.319L47.7515 22.3394L48.68 21.968ZM39.464 14.928L39.1981 15.892L39.2136 15.8963L39.2294 15.9001L39.464 14.928ZM16.936 18L17.6108 18.738L16.936 18ZM16.424 39.632L15.7169 40.3391L15.7283 40.3505L15.7401 40.3615L16.424 39.632ZM29.224 45.776L28.9681 46.7427L28.977 46.745L29.224 45.776ZM35.752 47.44L36.007 46.473L35.999 46.471L35.752 47.44ZM53.672 56.656L54.3718 55.9416L53.672 56.656ZM58.024 83.536L58.9542 83.9032L58.9573 83.895L58.024 83.536ZM52.392 91.984L51.6974 91.2646L52.392 91.984ZM43.176 97.616L43.5124 98.5578L43.5247 98.5532L43.176 97.616ZM30.76 98.536C25.474 98.536 21.24 97.7373 18.0051 96.2007L17.1469 98.0073C20.7386 99.7133 25.294 100.536 30.76 100.536V98.536ZM18.0323 96.2142C14.8586 94.5867 12.689 92.4685 11.4358 89.8837L9.63619 90.7563C11.1136 93.8035 13.6374 96.208 17.1197 97.9938L18.0323 96.2142ZM10.536 89.32H9.896V91.32H10.536V89.32ZM8.896 90.32V98H10.896V90.32H8.896ZM9.896 97H0.68V99H9.896V97ZM1.68 98V71.76H-0.32V98H1.68ZM0.68 72.76H9.896V70.76H0.68V72.76ZM8.896 71.76V77.648H10.896V71.76H8.896ZM8.896 77.648C8.896 79.8757 9.20807 81.984 9.83908 83.9672L11.7449 83.3608C11.1813 81.5893 10.896 79.6869 10.896 77.648H8.896ZM9.85751 84.02C10.5961 85.9588 11.7503 87.6634 13.3066 89.1282L14.6774 87.6718C13.3324 86.406 12.3532 84.9532 11.7265 83.308L9.85751 84.02ZM13.3276 89.1474C14.9879 90.6232 17.0809 91.7507 19.574 92.552L20.186 90.648C17.9005 89.9133 16.0681 88.9075 14.6564 87.6526L13.3276 89.1474ZM19.5836 92.5551C22.1812 93.3612 25.2736 93.752 28.84 93.752V91.752C25.4091 91.752 22.5282 91.3748 20.1764 90.6449L19.5836 92.5551ZM28.84 93.752C36.3663 93.752 42.0193 92.1582 45.5376 88.7325L44.1424 87.2995C41.1753 90.1885 36.1617 91.752 28.84 91.752V93.752ZM45.5283 88.7415C49.0863 85.3659 50.832 80.8631 50.832 75.344H48.832C48.832 80.4063 47.2497 84.3515 44.1517 87.2905L45.5283 88.7415ZM50.832 75.344C50.832 70.6259 49.4908 66.8046 46.6991 64.0129L45.2849 65.4271C47.6132 67.7554 48.832 71.0167 48.832 75.344H50.832ZM46.711 64.025C44.0589 61.2814 39.9371 59.212 34.4765 57.7385L33.9555 59.6695C39.2469 61.0973 42.9758 63.0386 45.273 65.415L46.711 64.025ZM34.4627 57.7349L27.4227 55.9429L26.9293 57.8811L33.9693 59.6731L34.4627 57.7349ZM27.4259 55.9437C19.5952 53.9229 13.6216 50.9134 9.42937 46.9678L8.05864 48.4242C12.5704 52.6705 18.8848 55.8051 26.9261 57.8803L27.4259 55.9437ZM9.42937 46.9678C5.31767 43.098 3.216 37.7517 3.216 30.8H1.216C1.216 38.1843 3.46633 44.102 8.05864 48.4242L9.42937 46.9678ZM3.216 30.8C3.216 27.3458 3.87319 24.251 5.16882 21.4978L3.35918 20.6462C1.92414 23.6957 1.216 27.0862 1.216 30.8H3.216ZM5.17348 21.4878C6.47753 18.6351 8.30578 16.24 10.6616 14.2904L9.38643 12.7496C6.79289 14.896 4.78114 17.5355 3.35453 20.6562L5.17348 21.4878ZM10.6616 14.2904C13.0284 12.3317 15.8576 10.81 19.1651 9.73503L18.5469 7.83296C15.0277 8.97671 11.969 10.6123 9.38643 12.7496L10.6616 14.2904ZM19.1582 9.73723C22.5466 8.66286 26.2832 8.12 30.376 8.12V6.12C26.1061 6.12 22.1627 6.68646 18.5538 7.83076L19.1582 9.73723ZM30.376 8.12C35.1452 8.12 38.9451 8.8746 41.8328 10.3184L42.7272 8.52957C39.4709 6.90139 35.3348 6.12 30.376 6.12V8.12ZM41.8625 10.3327C44.8491 11.7049 46.8747 13.6038 48.0358 16.0036L49.8362 15.1324C48.4373 12.2415 46.0255 10.0444 42.6975 8.51532L41.8625 10.3327ZM48.936 16.568H49.704V14.568H48.936V16.568ZM50.704 15.568V8.656H48.704V15.568H50.704ZM49.704 9.656H58.92V7.656H49.704V9.656ZM57.92 8.656V33.616H59.92V8.656H57.92ZM58.92 32.616H49.704V34.616H58.92V32.616ZM50.704 33.616V27.728H48.704V33.616H50.704ZM50.704 27.728C50.704 25.4876 50.3453 23.4388 49.6085 21.5966L47.7515 22.3394C48.38 23.9106 48.704 25.7017 48.704 27.728H50.704ZM49.6239 21.6376C48.9581 19.7355 47.7697 18.13 46.0939 16.8266L44.8661 18.4053C46.2623 19.4913 47.2072 20.7871 47.7361 22.2983L49.6239 21.6376ZM46.0939 16.8266C44.417 15.5224 42.2706 14.5767 39.6986 13.9559L39.2294 15.9001C41.6067 16.4739 43.471 17.3203 44.8661 18.4053L46.0939 16.8266ZM39.7299 13.964C37.142 13.2501 34.0173 12.904 30.376 12.904V14.904C33.9027 14.904 36.8367 15.2406 39.1981 15.892L39.7299 13.964ZM30.376 12.904C24.2696 12.904 19.5033 14.2978 16.2612 17.262L17.6108 18.738C20.3421 16.2408 24.5357 14.904 30.376 14.904V12.904ZM16.2612 17.262C13.0461 20.2016 11.456 24.0641 11.456 28.752H13.456C13.456 24.5652 14.8526 21.2598 17.6108 18.738L16.2612 17.262ZM11.456 28.752C11.456 33.56 12.8424 37.4647 15.7169 40.3391L17.1311 38.9249C14.7149 36.5087 13.456 33.16 13.456 28.752H11.456ZM15.7401 40.3615C18.6434 43.0834 23.092 45.1872 28.9681 46.7427L29.4799 44.8093C23.7507 43.2927 19.666 41.3006 17.1079 38.9025L15.7401 40.3615ZM28.977 46.745L35.505 48.409L35.999 46.471L29.471 44.807L28.977 46.745ZM35.497 48.4069C43.1543 50.4264 48.9524 53.4326 52.9722 57.3704L54.3718 55.9416C50.029 51.6874 43.8804 48.5496 36.007 46.4731L35.497 48.4069ZM52.9722 57.3704C56.9346 61.2519 58.944 66.3565 58.944 72.784H60.944C60.944 65.8995 58.7721 60.2521 54.3718 55.9416L52.9722 57.3704ZM58.944 72.784C58.944 76.5108 58.3233 79.9721 57.0907 83.177L58.9573 83.895C60.2847 80.4439 60.944 76.7372 60.944 72.784H58.944ZM57.0938 83.1688C55.8656 86.2804 54.0679 88.9759 51.6974 91.2646L53.0866 92.7034C55.6655 90.2135 57.6224 87.2769 58.9542 83.9032L57.0938 83.1688ZM51.6974 91.2646C49.3346 93.5459 46.3853 95.3549 42.8273 96.6788L43.5247 98.5532C47.3054 97.1465 50.5001 95.2007 53.0866 92.7034L51.6974 91.2646ZM42.8397 96.6743C39.3855 97.9079 35.3645 98.536 30.76 98.536V100.536C35.5422 100.536 39.7985 99.8841 43.5123 98.5577L42.8397 96.6743ZM72.73 92.112V91.112H71.73V92.112H72.73ZM82.202 92.112V93.112H83.202V92.112H82.202ZM82.202 10.576H83.202V9.73636L82.375 9.59108L82.202 10.576ZM72.73 8.91199H71.73V9.75163L72.557 9.89691L72.73 8.91199ZM72.73 4.432L72.5472 3.44884L71.73 3.60077V4.432H72.73ZM92.698 0.719994H93.698V-0.483036L92.5152 -0.263165L92.698 0.719994ZM92.698 67.664H91.698V68.664H92.698V67.664ZM93.338 67.664V68.664H93.7855L94.0837 68.3303L93.338 67.664ZM104.09 55.632L103.349 54.9604L103.344 54.9657L104.09 55.632ZM120.218 37.84L120.959 38.5116L122.474 36.84H120.218V37.84ZM111.514 37.84H110.514V38.84H111.514V37.84ZM111.514 31.952V30.952H110.514V31.952H111.514ZM138.906 31.952H139.906V30.952H138.906V31.952ZM138.906 37.84V38.84H139.906V37.84H138.906ZM129.562 37.84V36.84H129.136L128.841 37.1474L129.562 37.84ZM111.002 57.168L110.281 56.4754L109.726 57.0531L110.169 57.7206L111.002 57.168ZM134.17 92.112L133.337 92.6646L133.633 93.112H134.17V92.112ZM141.466 92.112H142.466V91.112H141.466V92.112ZM141.466 98V99H142.466V98H141.466ZM114.202 98H113.202V99H114.202V98ZM114.202 92.112V91.112H113.202V92.112H114.202ZM122.394 92.112V93.112H124.26L123.227 91.5582L122.394 92.112ZM103.834 64.208L104.667 63.6542L103.975 62.6138L103.111 63.517L103.834 64.208ZM92.698 75.856L91.9752 75.165L91.698 75.4549V75.856H92.698ZM92.698 92.112H91.698V93.112H92.698V92.112ZM102.17 92.112H103.17V91.112H102.17V92.112ZM102.17 98V99H103.17V98H102.17ZM72.73 98H71.73V99H72.73V98ZM72.73 93.112H82.202V91.112H72.73V93.112ZM83.202 92.112V10.576H81.202V92.112H83.202ZM82.375 9.59108L72.903 7.92708L72.557 9.89691L82.029 11.5609L82.375 9.59108ZM73.73 8.91199V4.432H71.73V8.91199H73.73ZM72.9128 5.41516L92.8808 1.70315L92.5152 -0.263165L72.5472 3.44884L72.9128 5.41516ZM91.698 0.719994V67.664H93.698V0.719994H91.698ZM92.698 68.664H93.338V66.664H92.698V68.664ZM94.0837 68.3303L104.836 56.2983L103.344 54.9657L92.5923 66.9977L94.0837 68.3303ZM104.831 56.3036L120.959 38.5116L119.477 37.1684L103.349 54.9604L104.831 56.3036ZM120.218 36.84H111.514V38.84H120.218V36.84ZM112.514 37.84V31.952H110.514V37.84H112.514ZM111.514 32.952H138.906V30.952H111.514V32.952ZM137.906 31.952V37.84H139.906V31.952H137.906ZM138.906 36.84H129.562V38.84H138.906V36.84ZM128.841 37.1474L110.281 56.4754L111.723 57.8606L130.283 38.5326L128.841 37.1474ZM110.169 57.7206L133.337 92.6646L135.003 91.5594L111.835 56.6154L110.169 57.7206ZM134.17 93.112H141.466V91.112H134.17V93.112ZM140.466 92.112V98H142.466V92.112H140.466ZM141.466 97H114.202V99H141.466V97ZM115.202 98V92.112H113.202V98H115.202ZM114.202 93.112H122.394V91.112H114.202V93.112ZM123.227 91.5582L104.667 63.6542L103.001 64.7618L121.561 92.6658L123.227 91.5582ZM103.111 63.517L91.9752 75.165L93.4208 76.547L104.557 64.899L103.111 63.517ZM91.698 75.856V92.112H93.698V75.856H91.698ZM92.698 93.112H102.17V91.112H92.698V93.112ZM101.17 92.112V98H103.17V92.112H101.17ZM102.17 97H72.73V99H102.17V97ZM73.73 98V92.112H71.73V98H73.73ZM159 14.8L158.224 15.4306L158.246 15.4572L158.269 15.4823L159 14.8ZM159 4.56L158.247 3.90149L158.244 3.90507L159 4.56ZM169.24 4.56L168.487 5.2185L168.498 5.23058L168.509 5.24232L169.24 4.56ZM169.24 14.8L169.971 15.4823L169.982 15.4706L169.993 15.4585L169.24 14.8ZM149.4 92.112V91.112H148.4V92.112H149.4ZM158.872 92.112V93.112H159.872V92.112H158.872ZM158.872 40.272H159.872V39.4324L159.045 39.2871L158.872 40.272ZM149.4 38.608H148.4V39.4476L149.227 39.5929L149.4 38.608ZM149.4 34.256L149.211 33.274L148.4 33.43V34.256H149.4ZM169.368 30.416H170.368V29.2054L169.179 29.434L169.368 30.416ZM169.368 92.112H168.368V93.112H169.368V92.112ZM178.84 92.112H179.84V91.112H178.84V92.112ZM178.84 98V99H179.84V98H178.84ZM149.4 98H148.4V99H149.4V98ZM164.12 15.72C162.1 15.72 160.689 15.1439 159.731 14.1177L158.269 15.4823C159.7 17.0161 161.703 17.72 164.12 17.72V15.72ZM159.776 14.1694C158.822 12.9948 158.336 11.6002 158.336 9.936H156.336C156.336 12.0264 156.96 13.8745 158.224 15.4306L159.776 14.1694ZM158.336 9.936V9.296H156.336V9.936H158.336ZM158.336 9.296C158.336 7.63128 158.821 6.29303 159.756 5.21493L158.244 3.90507C156.96 5.38696 156.336 7.20605 156.336 9.296H158.336ZM159.753 5.2185C160.716 4.11776 162.12 3.51199 164.12 3.51199V1.51199C161.683 1.51199 159.674 2.27156 158.247 3.90149L159.753 5.2185ZM164.12 3.51199C166.12 3.51199 167.524 4.11776 168.487 5.2185L169.993 3.90149C168.566 2.27156 166.557 1.51199 164.12 1.51199V3.51199ZM168.509 5.24232C169.518 6.32301 170.032 7.65193 170.032 9.296H172.032C172.032 7.1854 171.352 5.35699 169.971 3.87768L168.509 5.24232ZM170.032 9.296V9.936H172.032V9.296H170.032ZM170.032 9.936C170.032 11.5803 169.517 12.9653 168.487 14.1415L169.993 15.4585C171.353 13.904 172.032 12.0463 172.032 9.936H170.032ZM168.509 14.1177C167.551 15.1439 166.14 15.72 164.12 15.72V17.72C166.537 17.72 168.54 17.0161 169.971 15.4823L168.509 14.1177ZM149.4 93.112H158.872V91.112H149.4V93.112ZM159.872 92.112V40.272H157.872V92.112H159.872ZM159.045 39.2871L149.573 37.6231L149.227 39.5929L158.699 41.2569L159.045 39.2871ZM150.4 38.608V34.256H148.4V38.608H150.4ZM149.589 35.238L169.557 31.398L169.179 29.434L149.211 33.274L149.589 35.238ZM168.368 30.416V92.112H170.368V30.416H168.368ZM169.368 93.112H178.84V91.112H169.368V93.112ZM177.84 92.112V98H179.84V92.112H177.84ZM178.84 97H149.4V99H178.84V97ZM150.4 98V92.112H148.4V98H150.4ZM187.855 92.112V91.112H186.855V92.112H187.855ZM197.327 92.112V93.112H198.327V92.112H197.327ZM197.327 10.576H198.327V9.73636L197.5 9.59108L197.327 10.576ZM187.855 8.91199H186.855V9.75163L187.682 9.89691L187.855 8.91199ZM187.855 4.432L187.672 3.44884L186.855 3.60077V4.432H187.855ZM207.823 0.719994H208.823V-0.483036L207.64 -0.263165L207.823 0.719994ZM207.823 92.112H206.823V93.112H207.823V92.112ZM217.295 92.112H218.295V91.112H217.295V92.112ZM217.295 98V99H218.295V98H217.295ZM187.855 98H186.855V99H187.855V98ZM187.855 93.112H197.327V91.112H187.855V93.112ZM198.327 92.112V10.576H196.327V92.112H198.327ZM197.5 9.59108L188.028 7.92708L187.682 9.89691L197.154 11.5609L197.5 9.59108ZM188.855 8.91199V4.432H186.855V8.91199H188.855ZM188.038 5.41516L208.006 1.70315L207.64 -0.263165L187.672 3.44884L188.038 5.41516ZM206.823 0.719994V92.112H208.823V0.719994H206.823ZM207.823 93.112H217.295V91.112H207.823V93.112ZM216.295 92.112V98H218.295V92.112H216.295ZM217.295 97H187.855V99H217.295V97ZM188.855 98V92.112H186.855V98H188.855ZM226.23 92.112V91.112H225.23V92.112H226.23ZM235.702 92.112V93.112H236.702V92.112H235.702ZM235.702 10.576H236.702V9.73636L235.875 9.59108L235.702 10.576ZM226.23 8.91199H225.23V9.75163L226.057 9.89691L226.23 8.91199ZM226.23 4.432L226.047 3.44884L225.23 3.60077V4.432H226.23ZM246.198 0.719994H247.198V-0.483036L246.015 -0.263165L246.198 0.719994ZM246.198 92.112H245.198V93.112H246.198V92.112ZM255.67 92.112H256.67V91.112H255.67V92.112ZM255.67 98V99H256.67V98H255.67ZM226.23 98H225.23V99H226.23V98ZM226.23 93.112H235.702V91.112H226.23V93.112ZM236.702 92.112V10.576H234.702V92.112H236.702ZM235.875 9.59108L226.403 7.92708L226.057 9.89691L235.529 11.5609L235.875 9.59108ZM227.23 8.91199V4.432H225.23V8.91199H227.23ZM226.413 5.41516L246.381 1.70315L246.015 -0.263165L226.047 3.44884L226.413 5.41516ZM245.198 0.719994V92.112H247.198V0.719994H245.198ZM246.198 93.112H255.67V91.112H246.198V93.112ZM254.67 92.112V98H256.67V92.112H254.67ZM255.67 97H226.23V99H255.67V97ZM227.23 98V92.112H225.23V98H227.23ZM281.885 97.104L281.389 97.9722L281.398 97.9776L281.408 97.9828L281.885 97.104ZM275.997 91.472L276.906 91.0553L276.639 90.472H275.997V91.472ZM275.485 91.472V90.472H274.485V91.472H275.485ZM275.485 98V99H276.485V98H275.485ZM267.805 98H266.805V99H267.805V98ZM267.805 78.16V77.16H266.805V78.16H267.805ZM275.485 78.16H276.485V77.16H275.485V78.16ZM278.941 89.808L278.234 90.5151L278.941 89.808ZM301.597 90.704L302.139 91.5443L302.146 91.54L301.597 90.704ZM294.813 70.864L295.031 69.8881L295.025 69.8867L294.813 70.864ZM287.133 69.2L287.345 68.2227L287.344 68.2226L287.133 69.2ZM272.797 62.288L272.08 62.9857L272.09 62.9951L272.797 62.288ZM274.077 35.408L274.706 36.1857L274.716 36.1776L274.077 35.408ZM300.189 32.336L299.742 33.2305L299.753 33.2362L300.189 32.336ZM305.437 37.328L304.514 37.7126L304.77 38.328H305.437V37.328ZM305.949 37.328V38.328H306.949V37.328H305.949ZM305.949 31.952V30.952H304.949V31.952H305.949ZM313.629 31.952H314.629V30.952H313.629V31.952ZM313.629 51.792V52.792H314.629V51.792H313.629ZM305.949 51.792H304.949V52.792H305.949V51.792ZM281.373 39.248L281.935 40.0755L281.941 40.0712L281.373 39.248ZM280.733 54.608L280.011 55.2999L280.018 55.3076L280.026 55.3151L280.733 54.608ZM288.797 58.704L288.577 59.6797L288.587 59.6818L288.797 58.704ZM295.965 60.24L295.755 61.2178L295.762 61.2191L295.965 60.24ZM310.685 67.024L309.987 67.7405L309.997 67.7495L310.685 67.024ZM314.013 87.888L313.106 87.4669L313.103 87.4743L313.099 87.4819L314.013 87.888ZM309.405 94.032L310.061 94.7866L310.064 94.7846L309.405 94.032ZM302.109 98L301.801 97.0486L301.784 97.0541L301.767 97.0602L302.109 98ZM292.381 98.536C288.507 98.536 285.178 97.7538 282.362 96.2251L281.408 97.9828C284.565 99.6969 288.234 100.536 292.381 100.536V98.536ZM282.381 96.2358C279.486 94.5815 277.723 92.8371 276.906 91.0553L275.088 91.8887C276.149 94.2029 278.311 96.2132 281.389 97.9722L282.381 96.2358ZM275.997 90.472H275.485V92.472H275.997V90.472ZM274.485 91.472V98H276.485V91.472H274.485ZM275.485 97H267.805V99H275.485V97ZM268.805 98V78.16H266.805V98H268.805ZM267.805 79.16H275.485V77.16H267.805V79.16ZM274.485 78.16V80.848H276.485V78.16H274.485ZM274.485 80.848C274.485 84.746 275.718 87.9992 278.234 90.5151L279.648 89.1009C277.556 87.0088 276.485 84.2886 276.485 80.848H274.485ZM278.234 90.5151C280.814 93.0948 284.935 94.264 290.333 94.264V92.264C285.149 92.264 281.676 91.1292 279.648 89.1009L278.234 90.5151ZM290.333 94.264C295.292 94.264 299.267 93.3976 302.139 91.5443L301.055 89.8637C298.637 91.4237 295.102 92.264 290.333 92.264V94.264ZM302.146 91.54C305.211 89.5285 306.693 86.3643 306.693 82.256H304.693C304.693 85.8277 303.444 88.2956 301.048 89.868L302.146 91.54ZM306.693 82.256C306.693 79.0503 305.712 76.348 303.696 74.2373C301.701 72.1478 298.774 70.7247 295.031 69.8881L294.595 71.8399C298.106 72.6247 300.619 73.9108 302.25 75.6187C303.861 77.3054 304.693 79.4884 304.693 82.256H306.693ZM295.025 69.8867L287.345 68.2227L286.921 70.1773L294.601 71.8413L295.025 69.8867ZM287.344 68.2226C281.144 66.882 276.566 64.6428 273.504 61.5809L272.09 62.9951C275.513 66.4185 280.493 68.7874 286.922 70.1774L287.344 68.2226ZM273.513 61.5904C270.58 58.5775 269.061 54.4145 269.061 48.976H267.061C267.061 54.8015 268.699 59.5131 272.081 62.9856L273.513 61.5904ZM269.061 48.976C269.061 43.4326 270.961 39.2131 274.706 36.1856L273.448 34.6304C269.171 38.0882 267.061 42.9141 267.061 48.976H269.061ZM274.716 36.1776C278.5 33.0376 283.627 31.416 290.205 31.416V29.416C283.3 29.416 277.676 31.1224 273.438 34.6384L274.716 36.1776ZM290.205 31.416C294.208 31.416 297.367 32.0432 299.742 33.2304L300.636 31.4416C297.891 30.0688 294.394 29.416 290.205 29.416V31.416ZM299.753 33.2362C302.251 34.4448 303.782 35.9551 304.514 37.7126L306.36 36.9434C305.386 34.6049 303.417 32.7872 300.625 31.4358L299.753 33.2362ZM305.437 38.328H305.949V36.328H305.437V38.328ZM306.949 37.328V31.952H304.949V37.328H306.949ZM305.949 32.952H313.629V30.952H305.949V32.952ZM312.629 31.952V51.792H314.629V31.952H312.629ZM313.629 50.792H305.949V52.792H313.629V50.792ZM306.949 51.792V46.928H304.949V51.792H306.949ZM306.949 46.928C306.949 43.2518 305.644 40.3611 302.946 38.4343C300.311 36.5518 296.48 35.688 291.613 35.688V37.688C296.303 37.688 299.641 38.5309 301.784 40.0617C303.865 41.5483 304.949 43.7775 304.949 46.928H306.949ZM291.613 35.688C287.145 35.688 283.506 36.562 280.805 38.4248L281.941 40.0712C284.189 38.5206 287.377 37.688 291.613 37.688V35.688ZM280.811 38.4205C278.081 40.2736 276.789 43.2311 276.789 47.056H278.789C278.789 43.7129 279.887 41.465 281.935 40.0755L280.811 38.4205ZM276.789 47.056C276.789 50.2854 277.86 53.0551 280.011 55.2999L281.455 53.9161C279.681 52.0649 278.789 49.7999 278.789 47.056H276.789ZM280.026 55.3151C282.153 57.4425 285.027 58.8808 288.577 59.6796L289.017 57.7284C285.74 56.9912 283.238 55.6988 281.44 53.9009L280.026 55.3151ZM288.587 59.6818L295.755 61.2178L296.175 59.2622L289.007 57.7262L288.587 59.6818ZM295.762 61.2191C302.23 62.5632 306.932 64.7654 309.987 67.7405L311.383 66.3075C307.953 62.9679 302.841 60.6474 296.168 59.2609L295.762 61.2191ZM309.997 67.7495C313.082 70.6764 314.677 74.7834 314.677 80.208H316.677C316.677 74.3686 314.944 69.6863 311.373 66.2985L309.997 67.7495ZM314.677 80.208C314.677 82.7987 314.152 85.2144 313.106 87.4669L314.92 88.3091C316.093 85.783 316.677 83.0787 316.677 80.208H314.677ZM313.099 87.4819C312.139 89.6429 310.694 91.5753 308.746 93.2794L310.064 94.7846C312.212 92.9047 313.839 90.7411 314.927 88.2941L313.099 87.4819ZM308.749 93.2774C306.904 94.8818 304.596 96.1443 301.801 97.0486L302.417 98.9514C305.425 97.9784 307.981 96.5956 310.061 94.7866L308.749 93.2774ZM301.767 97.0602C299.082 98.0366 295.959 98.536 292.381 98.536V100.536C296.142 100.536 299.504 100.011 302.451 98.9398L301.767 97.0602Z" fill="#D9D9D9" fill-opacity="0.15"/>
</svg>
